<?xml version="1.0" standalone="no"?>
<!DOCTYPE svg PUBLIC "-//W3C//DTD SVG 20010904//EN"
 "http://www.w3.org/TR/2001/REC-SVG-20010904/DTD/svg10.dtd">
<svg version="1.0" xmlns="http://www.w3.org/2000/svg"
 width="2000.000000pt" height="2000.000000pt" viewBox="0 0 2000.000000 2000.000000"
 preserveAspectRatio="xMidYMid meet">
<metadata>
Created by potrace 1.14, written by Peter Selinger 2001-2017
</metadata>
<g transform="translate(0.000000,2000.000000) scale(0.100000,-0.100000)"
fill="#000000" stroke="none">
<path d="M9100 19092 c-14 -2 -28 -9 -31 -14 -6 -10 19 -46 49 -72 7 -6 22
-19 32 -30 19 -18 19 -18 24 5 13 61 10 89 -10 89 -9 0 -22 6 -28 13 -6 7 -22
11 -36 9z"/>
<path d="M1800 18676 c0 -15 -7 -26 -19 -29 -16 -4 -20 -18 -25 -83 -3 -44 -6
-86 -7 -94 -1 -8 2 -36 6 -62 7 -43 6 -48 -12 -48 -10 0 -24 -5 -29 -10 -7 -7
-20 -7 -41 1 -17 5 -48 9 -70 7 -36 -3 -38 -5 -41 -41 -3 -32 0 -39 17 -44 12
-3 21 -9 21 -13 0 -5 9 -12 20 -15 15 -5 20 -15 20 -44 0 -20 5 -42 11 -48 15
-15 -9 -50 -41 -59 -14 -4 -70 -10 -125 -13 l-100 -6 0 -29 c-1 -21 6 -31 24
-40 14 -6 40 -27 58 -47 37 -41 88 -69 126 -69 37 0 58 -39 51 -94 -4 -28 -2
-51 4 -59 6 -7 10 -26 8 -42 -3 -29 -6 -31 -68 -41 -72 -12 -84 -17 -98 -44
-8 -15 -2 -23 37 -49 25 -17 57 -31 70 -31 13 0 48 -7 76 -16 29 -9 58 -18 65
-20 21 -6 -3 -40 -47 -65 -53 -29 -58 -59 -15 -93 18 -14 37 -26 41 -26 11 0
43 -37 43 -50 0 -6 7 -10 15 -10 9 0 18 -6 21 -14 3 -8 13 -16 23 -19 13 -3
18 -16 20 -51 1 -25 -2 -52 -6 -59 -4 -6 -8 -16 -8 -22 0 -6 -38 -11 -87 -13
-70 -2 -96 1 -131 17 -35 16 -69 20 -178 22 -184 3 -204 -3 -148 -51 26 -22
44 -29 77 -30 28 0 53 -7 69 -20 14 -11 34 -20 44 -20 10 0 20 -4 24 -9 3 -6
22 -4 47 5 23 8 51 12 62 8 39 -11 76 -29 76 -36 0 -5 11 -8 25 -8 27 0 65
-27 65 -46 0 -7 5 -14 11 -16 5 -2 13 -22 16 -46 5 -40 4 -42 -21 -42 -15 0
-26 -6 -26 -13 0 -8 -17 -19 -39 -25 -61 -19 -122 -14 -177 12 -36 18 -71 25
-132 28 -45 3 -88 10 -94 16 -7 7 -27 12 -45 12 -32 0 -53 -21 -53 -54 0 -13
54 -45 103 -60 24 -8 21 -28 -8 -60 -32 -34 -32 -52 0 -60 l24 -6 -25 -38
c-60 -91 -62 -92 -140 -92 -64 0 -74 3 -103 29 -30 27 -32 32 -26 73 9 58 -18
110 -61 118 -16 4 -39 12 -52 19 -30 16 -79 5 -93 -20 -11 -22 -13 -321 -3
-604 3 -93 7 -226 9 -295 1 -69 7 -264 13 -435 6 -170 13 -499 16 -730 3 -231
11 -465 17 -520 6 -55 14 -413 19 -795 5 -382 11 -713 14 -735 7 -75 17 -389
27 -855 5 -256 13 -492 18 -525 5 -33 12 -303 15 -600 7 -616 16 -882 28 -845
5 16 6 1 3 -40 -6 -96 23 -1195 34 -1264 5 -32 10 -194 10 -360 1 -165 3 -382
7 -481 3 -103 1 -186 -4 -193 -10 -14 -28 -16 -230 -27 -73 -4 -135 -12 -138
-16 -3 -5 -47 -9 -97 -10 -51 0 -117 -5 -147 -10 -30 -5 -109 -16 -174 -24
-66 -8 -137 -21 -158 -30 -21 -8 -54 -15 -73 -15 l-35 0 0 -3635 0 -3635 9929
0 9930 0 3 22 c5 32 28 35 28 4 0 -25 3 -26 55 -26 l55 0 0 230 c0 198 -2 230
-15 230 -8 0 -18 0 -22 0 -5 1 -11 -14 -15 -32 -3 -18 -4 -4 -2 32 3 36 9 127
12 203 6 115 10 141 25 151 16 13 17 115 17 1905 l0 1891 -20 0 c-11 0 -23 7
-26 15 -3 8 -14 17 -25 20 -10 4 -46 33 -80 66 -33 32 -67 59 -75 59 -8 0 -14
6 -14 14 0 8 -7 16 -15 20 -8 3 -15 12 -15 21 0 24 62 20 78 -5 7 -11 19 -20
27 -20 8 0 38 -24 67 -54 29 -29 63 -56 76 -60 l22 -7 0 1937 0 1937 -127 -7
c-71 -3 -175 -11 -233 -16 -58 -6 -148 -13 -200 -16 -52 -3 -126 -12 -165 -19
-38 -8 -126 -16 -195 -20 -69 -3 -143 -11 -165 -19 -22 -7 -96 -16 -165 -20
-69 -4 -143 -11 -165 -18 -22 -6 -148 -15 -280 -19 -303 -10 -428 -21 -448
-37 -10 -8 -13 -21 -9 -36 8 -27 57 -86 71 -86 6 0 11 -8 11 -17 0 -10 9 -29
20 -43 11 -14 20 -31 20 -38 0 -7 6 -15 14 -18 8 -3 19 -18 26 -34 7 -16 18
-31 26 -34 8 -3 14 -12 14 -19 0 -8 9 -22 20 -32 11 -10 20 -24 20 -32 0 -7 5
-13 10 -13 6 0 18 -16 27 -35 9 -19 20 -32 25 -29 4 3 8 -4 8 -15 0 -12 4 -21
8 -21 5 0 17 -18 27 -39 10 -22 23 -42 31 -45 7 -3 16 -21 19 -40 4 -19 13
-37 21 -40 8 -3 14 -11 14 -17 0 -7 7 -19 15 -28 20 -21 65 -90 65 -100 0 -4
9 -16 20 -26 11 -10 20 -28 20 -40 0 -13 7 -25 15 -29 8 -3 29 -35 46 -71 18
-36 36 -68 40 -71 5 -3 9 -14 9 -24 0 -11 9 -24 20 -30 11 -6 23 -22 26 -35 3
-14 10 -25 15 -25 5 0 15 -16 24 -35 8 -20 21 -43 30 -51 8 -9 15 -22 15 -30
0 -8 4 -14 8 -14 5 0 14 -16 22 -35 7 -19 19 -36 27 -39 7 -3 13 -17 13 -31 0
-14 9 -34 20 -45 11 -11 20 -26 20 -34 0 -7 9 -24 19 -38 11 -13 23 -38 27
-54 4 -16 10 -31 13 -34 17 -14 61 -88 61 -103 0 -9 6 -17 14 -17 8 0 17 -15
20 -36 4 -19 13 -37 21 -40 7 -3 16 -23 20 -45 4 -24 12 -39 21 -39 8 0 14 -5
14 -11 0 -6 9 -22 19 -36 11 -13 23 -44 27 -68 3 -24 12 -46 19 -48 7 -3 15
-23 19 -45 3 -22 11 -42 17 -44 11 -4 32 -52 52 -123 7 -22 20 -51 30 -65 9
-13 17 -31 17 -40 0 -9 6 -24 13 -35 7 -11 19 -39 26 -62 6 -24 16 -43 21 -43
5 0 11 -15 14 -32 3 -18 8 -50 11 -71 3 -21 10 -35 14 -32 11 6 21 -18 21 -49
0 -12 9 -28 20 -36 13 -9 20 -26 20 -46 0 -17 6 -37 14 -43 7 -6 17 -30 20
-54 9 -53 47 -136 64 -137 7 0 12 -13 12 -31 0 -19 10 -43 25 -61 14 -16 25
-42 25 -57 0 -15 7 -36 15 -47 8 -10 15 -26 15 -34 0 -8 9 -33 20 -55 11 -22
19 -45 20 -51 0 -6 6 -17 14 -23 8 -7 18 -26 21 -42 4 -16 13 -36 22 -44 8 -9
18 -39 22 -68 4 -29 15 -64 24 -77 9 -14 17 -37 17 -52 0 -14 6 -33 13 -40 8
-7 17 -40 21 -72 3 -33 13 -73 20 -90 8 -17 23 -51 33 -76 11 -25 23 -63 26
-86 4 -22 13 -54 22 -70 8 -17 16 -54 19 -83 2 -29 9 -58 15 -64 17 -17 13
-37 -7 -37 -30 0 -42 21 -42 72 0 39 -5 54 -25 74 -14 14 -25 31 -25 39 0 8
-4 16 -9 19 -5 4 -12 29 -16 57 -4 28 -13 53 -21 56 -7 2 -18 29 -24 58 -6 29
-17 61 -25 71 -8 11 -15 39 -15 64 0 29 -9 63 -25 93 -14 26 -22 47 -19 47 4
0 0 8 -9 18 -9 10 -20 34 -24 53 -3 19 -20 60 -36 93 -16 32 -31 73 -34 92 -3
19 -10 34 -14 34 -5 0 -9 6 -9 14 0 8 -6 16 -14 19 -7 3 -16 21 -20 40 -4 19
-13 38 -21 41 -9 3 -15 19 -15 41 0 22 -6 38 -14 41 -8 3 -18 20 -21 37 -4 18
-13 41 -19 52 -7 11 -16 36 -20 56 -3 21 -13 42 -21 49 -8 7 -15 23 -15 36 0
26 -19 74 -30 74 -4 0 -12 25 -19 55 -7 30 -16 57 -21 60 -4 3 -11 24 -15 47
-7 39 -45 122 -66 142 -5 6 -9 25 -9 43 0 20 -8 41 -20 53 -12 12 -20 33 -20
54 0 18 -7 39 -14 46 -8 6 -20 28 -27 48 -6 20 -15 42 -19 47 -12 15 -60 140
-60 154 0 7 -4 10 -8 7 -5 -3 -17 20 -27 50 -10 30 -21 54 -25 54 -4 0 -12 18
-19 40 -6 22 -15 40 -20 40 -4 0 -13 18 -20 40 -6 22 -16 40 -21 40 -6 0 -10
6 -10 13 0 8 -9 22 -20 32 -11 10 -20 28 -20 40 0 12 -11 34 -25 49 -14 15
-25 33 -25 41 0 7 -4 15 -9 17 -11 4 -61 114 -61 134 0 8 -7 17 -15 20 -8 4
-15 12 -15 19 0 7 -7 18 -14 25 -8 6 -20 28 -27 48 -6 20 -29 58 -50 83 -22
26 -39 53 -39 62 0 8 -7 20 -15 27 -8 7 -15 19 -15 27 0 8 -11 28 -25 45 -14
16 -25 35 -25 43 0 7 -7 15 -15 19 -8 3 -15 14 -15 24 0 10 -9 27 -20 37 -11
10 -20 24 -20 32 0 7 -9 22 -20 33 -11 11 -20 30 -20 42 0 17 -36 77 -59 98
-4 3 -14 22 -23 43 -10 20 -22 37 -28 37 -5 0 -10 6 -10 13 0 7 -9 20 -20 30
-11 9 -20 26 -20 37 0 11 -7 20 -15 20 -8 0 -15 3 -14 7 2 15 -13 53 -21 53
-5 0 -15 12 -23 28 -37 71 -46 85 -66 98 -12 9 -21 19 -21 25 0 5 -15 31 -33
57 -18 26 -38 59 -45 75 -6 15 -16 27 -21 27 -5 0 -12 11 -15 25 -4 14 -13 25
-21 25 -8 0 -15 9 -15 20 0 11 -4 20 -10 20 -5 0 -10 5 -10 12 0 6 -11 26 -25
44 -14 18 -25 37 -25 42 0 5 -9 19 -20 32 -11 13 -20 29 -20 36 0 8 -11 16
-25 20 -14 3 -35 22 -47 43 -12 20 -36 50 -53 67 -16 17 -41 45 -54 62 -24 31
-82 98 -121 138 -11 12 -20 26 -20 33 0 6 -6 11 -14 11 -8 0 -18 9 -21 20 -3
11 -11 20 -17 20 -13 0 -10 -3 -152 135 -60 58 -113 105 -118 105 -10 0 -28
13 -61 46 -12 11 -37 26 -54 33 -18 8 -33 17 -33 22 0 5 -7 9 -15 9 -8 0 -19
8 -24 18 -18 34 -161 66 -178 40 -4 -7 -13 -28 -18 -47 -8 -27 -18 -37 -50
-48 -38 -13 -85 -49 -85 -64 0 -4 9 -10 19 -14 10 -3 24 -19 31 -34 10 -26 49
-48 73 -42 5 1 19 -7 32 -17 21 -17 22 -22 11 -37 -13 -18 -15 -17 -44 3 -16
12 -35 22 -41 22 -5 0 -14 7 -18 15 -7 12 -16 13 -46 4 -20 -5 -37 -14 -37
-19 0 -5 -10 -12 -22 -15 -13 -4 -43 -28 -68 -54 -25 -25 -58 -52 -73 -60 -15
-8 -27 -18 -27 -22 0 -4 -11 -17 -25 -30 -27 -27 -31 -48 -12 -68 10 -11 10
-14 0 -18 -7 -3 -13 -11 -13 -19 0 -9 -11 -14 -27 -14 -41 -1 -80 -39 -101
-95 -25 -71 -32 -79 -82 -99 -25 -10 -53 -26 -63 -37 -22 -24 -95 -27 -103 -4
-4 8 -16 15 -28 15 -11 0 -32 9 -46 20 -14 11 -37 20 -52 20 -32 0 -43 -25
-34 -75 7 -37 -11 -56 -46 -47 -36 9 -92 -68 -57 -80 14 -5 16 -75 2 -89 -16
-16 -92 -29 -131 -22 -21 3 -41 0 -57 -11 -26 -17 -55 -17 -77 1 -7 6 -31 18
-52 27 -22 9 -59 32 -83 52 l-43 35 3 79 c2 72 -4 102 -19 88 -3 -3 -6 -22 -7
-42 -1 -20 -5 -36 -8 -36 -7 0 -28 -125 -27 -162 0 -16 4 -28 9 -28 19 0 7
-31 -15 -40 -13 -5 -27 -14 -31 -19 -3 -6 -19 -11 -35 -11 -16 0 -41 -5 -57
-11 -24 -9 -30 -8 -43 11 -8 12 -29 38 -45 58 -28 34 -30 41 -24 87 4 28 5 65
2 83 -3 20 -1 32 6 32 6 0 11 9 11 20 0 11 -7 20 -15 20 -39 0 -33 74 8 109
10 7 17 21 16 30 0 13 -2 13 -8 -2 -5 -15 -11 -10 -30 27 -20 42 -27 48 -47
45 -11 -1 -22 23 -17 37 2 7 10 11 17 8 7 -3 25 0 41 6 21 8 30 8 36 -1 4 -7
14 -9 23 -6 12 5 16 0 16 -23 0 -19 5 -30 14 -30 7 0 29 -15 48 -33 28 -25 37
-43 43 -82 5 -36 9 -45 14 -31 7 19 8 19 22 -1 8 -11 24 -23 37 -27 18 -6 22
-4 22 12 0 11 7 22 15 26 9 3 15 18 15 40 0 27 -7 40 -31 59 -31 24 -31 25
-24 86 5 45 12 64 26 72 20 10 27 59 9 59 -20 0 -9 26 21 50 17 14 45 37 62
52 18 15 38 28 44 28 7 0 12 5 10 12 -1 7 16 16 38 21 64 15 67 16 72 37 4 14
14 20 34 20 16 0 29 3 29 8 0 4 14 13 31 21 23 10 29 18 26 33 -3 11 4 28 19
43 13 13 24 29 24 36 0 6 8 17 17 24 15 11 15 17 5 39 -7 15 -12 45 -12 67 0
35 6 47 45 85 25 24 50 44 55 44 5 0 14 26 20 58 7 31 18 61 26 65 8 4 14 15
14 22 0 8 5 15 10 15 6 0 10 7 10 15 0 9 7 18 15 21 8 4 15 15 15 25 0 16 -8
19 -54 19 -46 0 -56 -3 -61 -20 -4 -12 -21 -24 -46 -30 -36 -10 -42 -9 -59 12
-11 14 -17 33 -14 48 4 22 -2 28 -43 48 -59 27 -83 28 -111 2 -38 -35 -141
-15 -126 25 16 40 -91 17 -143 -31 -14 -13 -35 -26 -46 -30 -25 -8 -33 -16
-69 -68 -20 -28 -24 -43 -17 -52 7 -8 7 -19 0 -31 -5 -10 -15 -32 -21 -50 -11
-29 -40 -54 -40 -34 0 17 -32 6 -61 -22 -17 -16 -36 -30 -43 -31 -6 -1 -26
-12 -43 -24 -17 -12 -39 -22 -50 -22 -14 0 -15 -2 -4 -9 10 -7 4 -15 -28 -32
-22 -13 -41 -31 -41 -40 0 -21 -54 -59 -85 -59 -15 0 -36 -5 -48 -12 -12 -6
-32 -13 -45 -14 -12 -2 -31 -13 -42 -26 -11 -13 -19 -17 -20 -10 0 7 -13 12
-29 12 -16 0 -31 6 -34 13 -3 7 6 46 19 87 15 46 21 76 14 78 -5 2 -10 9 -10
16 0 15 -40 54 -40 40 0 -5 -5 -1 -11 9 -5 9 -15 17 -22 17 -23 1 -67 49 -67
73 0 15 -10 31 -26 42 -20 13 -23 19 -13 31 9 11 8 14 -6 14 -12 0 -15 5 -11
16 4 11 -1 18 -14 21 -11 3 -21 10 -21 17 -1 6 -3 18 -4 26 -1 8 -3 29 -4 47
-1 25 -7 33 -32 42 -18 6 -45 11 -60 11 -21 0 -29 5 -29 18 -1 22 -73 72 -105
72 -13 0 -27 4 -30 10 -8 13 -72 13 -80 0 -3 -5 -22 -10 -41 -10 -20 0 -33 -4
-29 -10 3 -5 19 -7 35 -3 35 7 90 -14 90 -33 0 -10 -15 -14 -57 -14 -86 0
-100 -6 -110 -48 -6 -24 -15 -38 -28 -41 -22 -4 -46 -32 -38 -44 9 -15 -9 -67
-23 -67 -8 0 -14 -4 -14 -10 0 -6 -28 -10 -63 -10 -121 0 -241 -39 -174 -55
19 -5 26 -15 30 -38 6 -44 2 -50 -43 -70 -28 -12 -40 -23 -40 -37 0 -11 -6
-20 -12 -21 -18 0 -61 -57 -64 -83 -1 -11 -3 -24 -3 -28 -3 -20 -37 -37 -87
-44 -45 -5 -54 -9 -49 -23 12 -30 10 -35 -22 -50 -17 -9 -43 -28 -57 -43 -14
-16 -29 -28 -33 -28 -4 0 -21 -14 -37 -30 -45 -46 -72 -40 -145 31 -75 73 -95
74 -99 6 -3 -44 -2 -47 22 -47 21 0 26 -6 31 -34 9 -46 0 -71 -27 -73 -24 -2
-76 -10 -117 -19 -16 -3 -21 -8 -13 -13 7 -4 -2 -8 -21 -8 -17 -1 -41 -3 -52
-5 -16 -2 -20 2 -18 22 8 117 6 131 -23 160 -16 16 -50 35 -76 41 -56 15 -73
6 -82 -46 -8 -42 -33 -46 -84 -15 -41 25 -47 40 -32 86 9 26 21 40 46 50 19 8
33 20 31 26 -1 7 6 14 16 16 11 2 35 15 54 28 20 13 40 24 46 24 14 0 1 71
-15 82 -7 4 -8 8 -3 8 24 1 -23 20 -50 20 -43 0 -63 15 -50 37 7 12 8 36 2 68
-5 28 -9 79 -9 115 0 36 -2 57 -5 48 -3 -13 -15 -18 -42 -18 l-38 0 0 75 c-1
56 3 75 13 75 7 0 19 12 26 27 7 15 27 35 45 46 30 17 33 17 65 1 18 -9 37
-23 41 -31 13 -21 25 -7 19 23 -4 20 2 31 24 50 16 13 37 23 47 24 20 0 121
-27 230 -62 67 -22 67 -23 65 -57 -3 -30 0 -34 22 -36 14 -2 45 6 69 16 37 16
69 19 225 19 183 0 298 11 304 30 2 5 31 10 65 10 42 0 74 6 98 19 20 11 53
23 73 26 20 4 38 11 41 15 3 5 30 14 60 21 30 7 55 16 55 21 0 4 5 8 12 8 6 0
26 11 44 25 18 14 40 25 48 25 9 0 16 6 16 13 0 7 15 19 34 25 19 7 37 19 40
27 3 8 12 15 21 15 8 0 15 6 15 14 0 8 9 17 19 21 11 3 22 12 25 20 3 8 10 15
15 15 14 0 61 45 61 58 0 6 10 19 23 29 12 10 33 39 46 65 13 25 32 48 42 51
11 3 19 11 19 19 0 8 14 14 34 15 26 2 39 -3 50 -18 14 -21 26 -22 69 -4 12 5
17 2 17 -8 0 -11 8 -14 33 -12 114 13 147 19 147 26 0 5 -4 9 -10 9 -5 0 -10
15 -10 34 0 19 -4 37 -9 40 -10 7 -24 -40 -16 -53 6 -11 -19 -21 -51 -21 -21
0 -23 3 -17 33 3 17 10 36 14 41 5 6 9 24 8 40 0 23 -2 26 -7 13 -7 -16 -10
-16 -30 8 -12 14 -29 25 -37 25 -18 0 -20 16 -2 24 6 4 2 4 -10 2 -13 -2 -26
0 -29 6 -3 5 -12 7 -20 4 -12 -4 -14 23 -14 162 1 148 3 170 19 190 13 15 30
22 53 22 19 0 38 3 42 8 4 4 55 12 113 19 58 6 109 16 112 21 3 5 15 12 26 16
22 6 58 64 55 87 -5 32 1 69 10 69 6 0 33 18 61 40 28 22 57 40 64 40 11 0 68
45 117 92 9 10 39 28 66 42 27 14 61 39 76 56 14 17 26 26 27 18 0 -7 4 -4 9
7 7 17 9 17 9 3 1 -20 31 -23 66 -8 16 7 17 9 3 9 -21 1 -30 15 -22 35 5 12
20 16 60 16 32 0 54 -4 54 -11 0 -14 -55 -69 -69 -69 -6 0 -11 -9 -11 -20 0
-18 3 -19 20 -10 11 6 20 15 20 20 0 6 9 10 20 10 15 0 20 -7 20 -29 0 -16 -6
-32 -12 -35 -10 -5 -10 -7 0 -12 6 -3 12 -10 12 -16 0 -6 -7 -5 -16 3 -13 10
-17 10 -25 -2 -5 -8 -9 -17 -9 -21 0 -4 -15 -8 -32 -10 -25 -2 -33 -8 -34 -23
-2 -40 -23 -77 -40 -71 -30 11 -84 -5 -84 -24 0 -19 -101 -117 -135 -130 -11
-5 -35 -14 -53 -22 -18 -7 -38 -25 -44 -39 -10 -23 -20 -28 -61 -32 -42 -4
-54 -10 -91 -51 -24 -25 -50 -46 -59 -46 -11 0 -17 -8 -17 -21 0 -30 -24 -49
-62 -49 -75 -2 -131 -56 -98 -96 18 -20 28 -17 32 8 2 14 11 24 23 26 11 2 36
9 55 17 19 7 47 16 63 19 15 4 27 13 27 21 0 8 8 15 18 15 10 0 35 9 57 20 23
12 59 20 87 20 49 0 64 11 60 46 -4 30 35 44 126 45 48 1 68 4 52 8 -21 6 -22
8 -7 14 9 3 29 2 43 -3 37 -15 64 -12 64 6 0 8 5 12 10 9 16 -10 12 -23 -10
-30 -11 -3 -20 -11 -20 -17 0 -5 7 -7 16 -4 11 4 19 -3 27 -24 12 -30 41 -41
50 -17 3 6 6 2 6 -10 1 -16 7 -23 21 -23 13 0 20 -7 20 -20 0 -13 7 -20 19
-20 11 0 21 -6 24 -12 3 -9 12 -6 29 10 13 12 36 22 51 22 16 0 32 8 39 20 7
11 18 20 25 20 7 0 13 4 13 9 0 10 40 22 82 26 14 1 39 10 55 20 21 14 48 19
108 19 74 1 80 3 83 22 5 32 75 48 85 20 3 -8 2 -40 -2 -72 -6 -41 -5 -61 3
-66 17 -11 66 -9 66 2 0 6 11 22 24 37 14 15 22 33 19 44 -3 10 0 19 6 19 6 0
11 11 11 24 0 30 9 56 20 56 4 0 25 17 46 38 37 36 37 38 36 112 0 41 6 99 14
129 9 29 14 71 13 92 -2 25 3 44 14 57 9 10 17 26 17 35 0 9 5 17 10 17 6 0
10 8 10 18 0 10 4 22 9 28 4 5 17 34 27 64 18 53 43 90 62 90 18 0 42 49 43
87 l2 38 7 -40 7 -40 2 47 c0 26 6 59 12 75 7 19 7 29 0 31 -16 5 -13 43 4 56
10 7 18 40 23 96 11 112 1 128 -74 122 -57 -5 -150 13 -162 32 -20 30 -92 48
-210 50 -55 1 -57 2 -58 29 -1 18 6 32 17 38 11 5 19 16 19 23 0 7 11 26 24
41 28 33 38 81 20 96 -12 10 -44 17 -173 37 -42 7 -45 9 -62 57 -10 28 -18 62
-18 77 -1 41 27 139 45 159 9 10 14 25 11 34 -4 9 -1 15 7 15 14 0 30 55 20
71 -3 5 -12 9 -20 9 -10 0 -14 12 -14 38 0 44 23 82 50 82 12 0 21 10 25 29 5
22 14 31 35 36 42 9 56 30 41 61 -15 33 -14 50 3 66 31 31 42 73 38 145 l-4
72 -59 7 c-56 6 -60 9 -66 36 -3 16 -13 32 -22 35 -9 3 -23 12 -31 19 -8 7
-43 26 -77 43 -72 36 -87 64 -56 105 10 14 23 26 30 26 6 0 15 9 18 20 4 14
15 20 34 20 18 0 34 8 44 23 l16 22 16 -22 c9 -13 22 -23 29 -23 14 0 16 18
19 219 1 97 5 135 14 138 10 4 9 9 -3 20 -9 9 -14 28 -12 46 2 23 -2 32 -13
35 -9 2 -18 -5 -21 -15 -4 -15 -13 -18 -50 -15 -42 4 -45 5 -40 29 3 16 17 30
39 41 33 16 34 19 31 63 -2 26 0 45 4 43 9 -6 30 55 33 99 2 21 14 52 27 70
16 20 28 53 32 87 4 30 13 62 20 70 42 51 68 204 47 285 -7 26 -18 83 -26 127
-7 43 -19 86 -25 93 -7 9 -13 60 -15 129 -3 115 -3 115 -39 166 -35 48 -36 54
-40 149 -3 64 -10 109 -20 129 -9 17 -16 41 -16 54 0 13 -9 41 -20 63 -10 22
-22 61 -25 87 -4 26 -13 54 -21 62 -8 8 -14 19 -14 25 0 6 -18 37 -40 68 -22
32 -40 63 -40 68 0 6 -9 17 -20 25 -11 8 -20 24 -20 36 0 12 -6 27 -14 33 -8
7 -17 24 -21 38 -3 15 -15 39 -26 54 -10 15 -19 35 -19 44 0 9 -15 31 -32 48
-18 18 -38 41 -44 52 -6 11 -16 29 -22 40 -6 11 -22 45 -35 75 -14 30 -41 79
-61 109 -20 29 -36 61 -36 71 0 9 -9 29 -20 43 -11 14 -20 33 -20 42 0 24 -50
109 -92 156 -10 10 -18 23 -18 27 0 4 -17 26 -37 49 -21 22 -48 52 -60 67 -13
14 -29 26 -35 26 -7 0 -26 16 -42 35 -16 19 -34 35 -40 35 -6 0 -33 20 -60 44
-27 24 -58 46 -70 49 -12 3 -46 15 -76 27 -83 33 -143 42 -208 32 -55 -9 -152
-41 -162 -53 -3 -3 -22 -9 -43 -13 -23 -4 -52 -21 -79 -46 -23 -22 -44 -40
-47 -40 -11 0 -133 -135 -147 -162 -8 -16 -19 -28 -24 -28 -6 0 -10 -6 -10
-14 0 -8 -7 -16 -15 -20 -8 -3 -20 -17 -25 -31 -5 -14 -14 -25 -20 -25 -5 0
-10 -7 -10 -15 0 -8 -4 -15 -10 -15 -5 0 -10 -7 -10 -15 0 -8 -4 -15 -10 -15
-5 0 -12 -11 -16 -24 -3 -14 -12 -27 -19 -30 -7 -2 -16 -18 -20 -35 -4 -17
-13 -31 -21 -31 -8 0 -14 -6 -14 -14 0 -11 -47 -79 -98 -141 -4 -5 -14 -26
-22 -45 -8 -19 -20 -41 -27 -48 -7 -7 -13 -24 -13 -38 0 -14 -6 -27 -14 -30
-8 -3 -18 -19 -21 -36 -7 -28 -58 -88 -76 -88 -5 0 -9 -6 -9 -12 0 -7 -17 -29
-36 -48 -31 -31 -37 -33 -47 -19 -7 9 -23 16 -37 15 -20 -1 -27 6 -35 32 -5
19 -14 31 -21 28 -7 -3 -14 0 -16 5 -7 22 -507 9 -535 -13 -12 -9 -80 -7 -98
4 -15 9 -211 -9 -234 -21 -11 -6 -41 -11 -67 -11 -26 0 -61 -4 -78 -10 -17 -5
-89 -12 -159 -16 -89 -4 -132 -10 -142 -20 -15 -15 -95 -20 -95 -5 0 5 -21 9
-46 9 -25 1 -54 4 -64 7 -10 3 -25 -2 -35 -11 -9 -9 -33 -20 -53 -25 -58 -11
-136 -44 -199 -82 -32 -20 -71 -39 -88 -43 -16 -4 -39 -13 -50 -20 -11 -8 -33
-14 -51 -14 -17 0 -34 -3 -38 -7 -4 -4 -35 -13 -68 -20 -61 -12 -138 -4 -162
18 -14 13 -80 11 -93 -2 -6 -6 -41 -14 -77 -16 -51 -5 -70 -2 -84 9 -10 10
-46 18 -90 21 -46 4 -80 12 -91 21 -10 9 -20 14 -23 11 -3 -3 -13 6 -22 20
-12 18 -25 25 -47 25 -36 0 -107 38 -146 78 -15 16 -46 35 -67 42 -22 7 -52
26 -67 41 -16 16 -34 29 -42 29 -7 0 -29 12 -48 26 -19 14 -58 37 -86 51 -29
15 -53 30 -53 34 0 5 -16 11 -36 15 -19 4 -51 21 -71 40 -20 19 -41 34 -48 34
-7 0 -23 8 -36 19 -13 10 -38 22 -56 25 -17 4 -37 14 -44 22 -6 8 -19 14 -29
14 -10 0 -20 7 -24 15 -3 8 -12 15 -21 15 -8 0 -15 4 -15 9 0 10 -44 29 -75
34 -12 1 -34 12 -50 23 -17 12 -50 31 -75 44 -25 12 -52 26 -60 31 -8 5 -24
13 -35 18 -12 5 -27 16 -34 25 -7 9 -21 16 -30 16 -9 0 -27 9 -41 20 -14 11
-32 20 -40 20 -20 1 -51 25 -43 33 3 4 -10 7 -29 7 -21 0 -38 6 -41 14 -3 8
-35 19 -74 26 -37 7 -72 16 -78 20 -18 13 -105 22 -219 21 -93 -1 -119 -4
-158 -23 -27 -13 -48 -26 -48 -30 0 -3 -6 -13 -12 -20 -7 -7 -20 -26 -28 -43
-8 -16 -19 -33 -25 -37 -15 -11 -12 -477 3 -505 7 -12 16 -61 21 -110 8 -76
33 -176 61 -248 14 -36 30 -102 30 -124 0 -11 4 -21 10 -21 5 0 14 -18 20 -40
6 -22 15 -40 20 -40 5 0 15 -19 22 -42 6 -24 16 -46 21 -49 5 -4 13 -28 18
-55 5 -27 14 -50 19 -52 6 -2 10 -10 10 -18 0 -16 18 -51 38 -72 6 -7 12 -18
12 -24 0 -5 9 -21 20 -35 11 -14 20 -34 20 -44 0 -11 5 -19 11 -19 5 0 17 -16
25 -35 8 -19 18 -35 22 -35 5 0 16 -15 25 -32 46 -86 86 -153 96 -156 6 -2 11
-14 11 -27 0 -12 6 -38 14 -57 8 -19 18 -59 22 -89 3 -30 13 -65 22 -79 10
-15 18 -62 23 -120 4 -53 12 -96 18 -98 6 -2 11 -8 11 -14 0 -5 11 -24 25 -42
14 -18 25 -36 25 -40 0 -4 9 -16 20 -28 11 -12 20 -32 20 -44 0 -14 8 -25 20
-29 11 -3 20 -13 20 -21 0 -8 4 -14 10 -14 5 0 15 -18 22 -41 7 -25 25 -52 45
-68 18 -14 33 -30 33 -34 0 -4 9 -17 20 -29 14 -15 20 -36 20 -67 0 -49 -34
-131 -55 -131 -13 0 -32 -103 -26 -143 1 -10 -3 -25 -10 -34 -10 -11 -14 -61
-15 -177 -1 -169 -8 -231 -29 -256 -7 -8 -15 -35 -19 -60 -4 -24 -12 -47 -17
-51 -9 -5 -26 -143 -29 -227 0 -7 -4 -10 -10 -7 -6 4 -10 -5 -10 -19 0 -14 4
-26 9 -26 9 0 23 -70 21 -114 -1 -32 -16 -66 -38 -82 -8 -6 -16 -24 -18 -40
-4 -39 17 -96 33 -90 7 3 13 1 13 -5 0 -5 -7 -12 -15 -15 -8 -4 -15 -11 -15
-17 0 -14 -51 -67 -64 -67 -6 0 -22 -16 -35 -36 -13 -19 -33 -39 -43 -45 -10
-5 -18 -16 -18 -24 0 -8 -7 -15 -15 -15 -8 0 -15 -5 -15 -11 0 -12 -117 -128
-166 -164 -14 -11 -91 -85 -171 -165 -187 -188 -183 -184 -183 -198 0 -7 -7
-12 -15 -12 -9 0 -19 -8 -22 -17 -12 -32 -123 -135 -141 -131 -14 3 -18 17
-22 74 l-5 71 -75 -1 c-48 -1 -94 5 -127 16 -29 10 -75 20 -103 22 -28 2 -54
7 -57 10 -4 3 -23 6 -44 6 -21 0 -48 4 -61 9 -39 15 -99 33 -121 37 -12 2 -49
8 -81 14 -33 6 -66 8 -73 6 -8 -3 -36 -1 -63 5 -40 9 -51 15 -56 35 -4 16 -15
26 -33 29 -40 8 -115 26 -117 28 -1 1 -5 12 -8 25 -6 18 -3 22 13 22 32 0 36
-1 33 -11 -1 -5 13 -9 30 -10 75 -2 216 -25 232 -38 7 -6 30 -13 50 -16 21 -2
45 -10 54 -17 11 -9 16 -10 19 -2 2 7 22 2 55 -15 36 -19 52 -23 55 -13 6 14
53 17 53 2 0 -6 39 -10 96 -10 81 0 100 -3 125 -21 19 -13 51 -22 98 -26 59
-5 72 -3 89 13 19 18 21 29 18 129 -2 61 -9 125 -14 143 -6 19 -11 98 -12 175
0 187 -30 779 -60 1207 -6 80 -15 268 -20 418 -6 152 -15 283 -21 293 -6 11
-12 71 -14 132 -6 141 -14 209 -26 201 -5 -3 -9 5 -9 18 0 17 -3 19 -9 9 -6
-9 -10 -10 -16 -2 -5 9 -10 9 -20 1 -23 -19 -51 2 -46 34 1 4 -3 14 -9 21 -8
9 -7 14 1 17 8 3 9 9 5 17 -7 11 -10 11 -18 0 -7 -10 -8 -8 -3 7 3 12 0 33 -6
47 -13 30 -67 53 -83 37 -13 -13 -46 -13 -46 0 0 6 -10 10 -21 10 -12 0 -27 8
-34 17 -11 15 -15 15 -29 4 -9 -7 -26 -11 -38 -8 -13 4 -26 5 -29 4 -7 -3 -27
19 -63 68 -17 22 -34 43 -38 46 -20 14 -48 87 -48 126 0 24 -4 43 -10 43 -5 0
-10 -20 -10 -44 0 -31 -5 -46 -16 -50 -17 -7 -54 10 -54 24 0 6 -7 10 -15 10
-18 0 -20 -16 -2 -23 6 -3 -1 -10 -18 -18 -29 -12 -77 -16 -340 -23 -71 -3
-137 -5 -145 -5 -8 -1 -28 1 -45 3 -16 3 -35 0 -42 -6 -9 -7 -15 -4 -21 13
-21 58 -22 76 -2 94 10 9 22 30 25 47 4 16 13 32 21 35 8 3 14 11 14 19 0 8 8
14 19 14 10 0 33 13 52 29 28 25 31 31 20 45 -11 13 -11 16 0 16 9 0 7 6 -7
18 -27 22 -43 65 -53 138 -10 73 5 109 55 130 19 8 34 18 34 23 0 5 18 12 40
16 41 7 80 45 80 79 0 26 22 19 68 -22 l43 -39 -7 -61 -6 -61 -57 -12 c-31 -7
-62 -18 -70 -25 -13 -12 -12 -16 7 -32 12 -11 22 -27 22 -36 0 -9 8 -16 20
-16 11 0 23 -7 26 -15 4 -8 10 -15 15 -15 4 0 20 -11 35 -25 17 -16 34 -23 46
-19 10 3 18 1 18 -5 0 -6 19 -12 43 -13 36 -1 38 -2 10 -5 -41 -5 -42 -19 -3
-26 22 -5 30 -12 30 -28 0 -11 16 -37 35 -56 26 -26 33 -41 29 -58 -3 -12 -1
-26 5 -29 6 -4 11 0 11 8 0 12 10 16 41 16 36 0 41 3 55 35 9 24 19 33 29 29
11 -5 15 1 15 19 0 14 5 29 10 32 6 3 10 -3 10 -14 0 -18 6 -21 40 -21 35 0
40 3 40 24 0 30 25 53 43 38 27 -22 103 33 95 69 -2 6 3 14 10 16 6 3 12 -2
12 -11 0 -19 8 -20 40 -1 14 8 19 14 11 15 -7 0 -11 6 -8 14 4 11 -3 13 -34 9
-25 -4 -39 -2 -37 5 2 5 -13 21 -32 34 -33 22 -39 23 -70 12 -50 -18 -78 -17
-89 4 -17 31 -54 25 -79 -13 -12 -19 -22 -40 -22 -46 0 -6 -9 -8 -22 -3 -31 9
-29 5 -35 65 -5 51 -23 94 -23 56 0 -9 -4 -17 -10 -17 -5 0 -10 -22 -10 -50 0
-49 -1 -50 -30 -50 -23 0 -30 5 -30 19 0 11 6 21 12 23 19 7 -16 38 -42 38
-12 0 -18 5 -15 10 3 6 13 10 21 10 8 0 25 10 37 23 16 17 34 24 66 25 49 1
70 20 45 39 -19 14 -44 7 -44 -13 0 -8 -4 -14 -10 -14 -15 0 -12 12 10 40 13
16 20 41 20 70 0 26 7 56 16 69 14 20 15 31 5 75 -6 28 -15 90 -20 138 -5 49
-13 94 -19 100 -22 29 -37 114 -31 183 9 104 -1 195 -23 217 -10 10 -18 32
-18 48 0 34 -4 41 -68 108 -33 34 -46 42 -55 33 -14 -14 -17 -168 -4 -218 7
-28 4 -36 -27 -69 -40 -43 -40 -43 -25 -99 11 -40 51 -85 76 -85 7 0 13 -6 13
-14 0 -7 10 -17 23 -21 21 -7 20 -8 -8 -14 -71 -17 -95 -32 -95 -61 0 -15 7
-33 15 -40 8 -7 15 -19 15 -26 0 -8 8 -14 19 -14 21 0 45 -23 34 -33 -3 -4
-15 -7 -25 -7 -14 0 -18 -5 -13 -19 5 -16 -2 -20 -49 -25 -42 -6 -54 -11 -49
-22 3 -7 -2 -17 -11 -20 -9 -3 -16 -12 -16 -20 0 -14 -10 -17 -60 -17 -39 0
-100 14 -101 24 -1 5 -2 15 -3 22 -2 25 -50 68 -71 63 -26 -7 -99 10 -103 23
-2 6 -11 11 -21 11 -19 0 -86 31 -113 53 -10 8 -25 33 -33 57 -17 49 -12 61
45 120 29 30 40 60 21 60 -5 0 -15 24 -21 53 -17 70 -19 74 -69 100 -42 21
-44 24 -46 72 -5 85 -23 234 -30 245 -4 6 -10 8 -15 5 -5 -3 -12 10 -16 30 -3
20 -12 35 -20 35 -8 0 -14 -4 -14 -10 0 -5 -7 -10 -16 -10 -35 0 0 -190 36
-202 16 -5 17 -91 2 -96 -7 -2 -12 -9 -12 -15 0 -6 -10 -21 -22 -35 -17 -18
-23 -36 -23 -71 0 -40 5 -53 33 -80 17 -18 32 -40 32 -49 0 -9 16 -27 34 -39
34 -22 35 -23 29 -80 -3 -32 -10 -59 -15 -61 -4 -2 -8 -10 -8 -18 0 -23 -32
-67 -40 -54 -4 7 -18 3 -41 -13 -27 -18 -35 -30 -37 -60 -2 -21 -9 -37 -16
-37 -6 0 -72 -5 -146 -11 -156 -12 -175 -23 -126 -70 28 -27 26 -67 -5 -107
-10 -13 -15 -30 -12 -38 3 -8 0 -14 -6 -14 -6 0 -11 -9 -11 -20 0 -11 5 -20
12 -20 6 0 22 -10 35 -22 20 -19 25 -20 33 -8 7 11 10 3 10 -27 0 -29 -4 -43
-13 -43 -18 0 -71 -74 -56 -79 15 -5 -20 -41 -40 -41 -28 0 -70 43 -73 75 -2
22 1 29 12 28 20 -3 41 42 27 56 -7 7 -2 14 16 22 21 10 26 19 29 62 3 50 -14
93 -33 82 -5 -4 -9 1 -9 10 0 9 4 14 9 10 5 -3 12 -1 16 5 3 5 -1 10 -9 10 -9
0 -16 5 -16 10 0 6 -13 10 -30 10 -16 0 -30 -4 -30 -9 0 -5 -10 -12 -22 -16
-13 -4 -30 -9 -38 -12 -15 -5 -36 -5 -65 -2 -8 1 -15 9 -15 16 0 8 -13 19 -30
24 -16 6 -27 15 -24 20 3 5 -15 9 -41 9 -25 0 -61 6 -79 14 -31 13 -35 20 -46
73 -21 107 -31 119 -90 114 -25 -2 -59 -35 -60 -57 0 -20 -57 -74 -78 -74 -12
0 -22 9 -26 23 -14 52 -65 80 -99 54 -32 -23 -49 -145 -25 -174 25 -30 18 -61
-23 -96 -23 -21 -39 -44 -39 -57 0 -23 -64 -90 -86 -90 -7 0 -17 -6 -21 -14
-6 -11 -19 -12 -65 -4 -59 10 -88 31 -91 67 -1 11 -4 21 -8 21 -4 0 -10 22
-14 50 -7 52 -56 120 -86 120 -8 0 -22 9 -32 20 -9 11 -24 20 -32 20 -8 0 -15
7 -15 15 0 8 -7 15 -15 15 -8 0 -19 8 -24 19 -6 10 -24 24 -41 31 -16 7 -30
16 -30 21 0 5 -10 9 -22 9 -13 0 -36 7 -51 15 -30 15 -104 13 -152 -5 -15 -6
-36 -10 -49 -10 -12 0 -33 -11 -46 -25 l-24 -25 33 -68 c38 -79 38 -106 -2
-110 -15 -2 -34 -13 -41 -25 -19 -30 -5 -127 28 -192 14 -27 26 -55 26 -61 0
-6 13 -9 31 -6 17 3 34 1 38 -4 8 -12 108 -64 122 -64 6 0 30 -19 53 -43 41
-40 43 -46 50 -117 4 -41 12 -81 18 -87 6 -7 25 -13 42 -13 48 0 68 -19 64
-60 l-3 -35 -73 0 c-47 0 -77 5 -84 13 -15 17 -32 15 -53 -8 -10 -11 -36 -25
-57 -32 -34 -10 -43 -19 -39 -40 2 -16 -38 -7 -48 10 -9 14 -12 15 -20 3 -5
-8 -31 -18 -58 -21 -34 -4 -47 -10 -45 -19 2 -8 -3 -18 -10 -22 -9 -6 -5 -13
14 -28 14 -11 29 -32 32 -46 4 -14 13 -25 21 -25 10 0 15 -10 15 -30 0 -29 -2
-30 -45 -30 -34 0 -47 -4 -53 -17 -10 -26 -7 -154 5 -162 20 -13 22 -43 8 -98
-11 -41 -15 -112 -15 -253 0 -154 -3 -200 -14 -216 -13 -17 -12 -21 1 -36 9
-10 14 -18 11 -18 -3 0 -2 -19 2 -42 11 -57 -2 -88 -36 -88 -30 0 -84 35 -84
55 0 8 -8 18 -17 24 -15 8 -18 24 -18 94 0 57 4 89 14 101 11 13 13 40 8 123
-3 58 -9 108 -14 112 -5 3 -12 14 -16 24 -4 12 -17 17 -41 17 -19 0 -37 4 -41
9 -3 5 -19 12 -36 16 -17 4 -33 14 -36 23 -4 10 -11 20 -17 25 -7 4 -8 10 -1
15 19 14 46 76 56 126 5 27 13 52 18 55 4 4 14 51 20 106 7 55 19 110 27 122
8 12 14 33 14 46 0 13 9 32 20 42 11 10 20 24 20 30 0 7 18 25 40 40 22 15 40
32 40 36 0 5 6 9 13 9 7 0 28 8 47 18 19 10 60 20 90 21 34 2 68 10 88 23 28
17 32 25 32 63 0 53 -8 75 -26 75 -8 0 -14 5 -14 10 0 6 -13 24 -30 40 -16 16
-30 33 -30 37 0 5 -9 14 -20 21 -19 11 -22 10 -31 -18 -6 -16 -17 -30 -25 -30
-8 0 -14 -4 -14 -10 0 -12 -43 -7 -85 9 -16 6 -36 14 -42 16 -7 2 -13 9 -13
15 0 13 -53 13 -66 0 -14 -14 -84 36 -84 60 0 10 -4 22 -10 25 -5 3 -10 14
-10 24 0 10 -8 29 -19 42 -10 13 -24 48 -31 78 -7 31 -16 48 -20 41 -5 -8 -9
-7 -13 4 -4 10 -19 16 -40 16 -24 0 -41 8 -62 30 -16 17 -34 30 -39 31 -6 0
-29 22 -51 49 -22 27 -45 49 -50 49 -6 1 -18 10 -27 20 -10 12 -36 22 -65 26
-26 4 -62 13 -80 21 -40 18 -48 18 -69 -3 -23 -24 -192 -26 -242 -3 -39 18
-87 89 -96 143 -4 21 -16 53 -27 72 -18 29 -19 40 -10 66 15 42 14 45 -9 46
-11 1 -32 9 -47 17 -16 9 -36 18 -45 22 -36 13 -17 68 33 94 28 16 25 56 -6
64 -13 3 -29 15 -35 26 -6 11 -15 20 -20 20 -6 0 -23 15 -39 33 -29 31 -41 61
-58 142 -7 34 -13 42 -43 51 l-35 12 -1 118 c-1 150 -3 156 -66 225 -16 16
-37 47 -48 69 -20 40 -28 44 -93 56 -20 3 -40 10 -43 15 -3 5 -14 5 -25 -1
-10 -6 -56 -12 -100 -13 -75 -2 -82 0 -98 21 -9 13 -40 48 -68 78 -67 70 -69
89 -10 79 23 -3 64 -8 91 -10 44 -3 51 0 73 26 29 33 79 39 127 14 36 -19 51
-19 70 1 25 24 19 41 -19 54 -19 6 -35 15 -35 19 0 4 -18 13 -40 20 -28 8 -40
17 -40 31 0 10 -6 20 -12 23 -10 3 -10 7 -2 18 14 17 15 79 1 79 -23 0 -68 45
-91 93 -24 48 -42 64 -112 104 -12 7 -30 25 -39 40 -16 24 -17 30 -2 72 8 25
18 80 22 121 5 56 13 86 34 120 55 90 61 153 15 164 -29 8 -103 -10 -125 -30
-8 -8 -36 -17 -62 -20 -40 -6 -47 -4 -52 12 -3 11 -13 32 -21 47 -8 16 -14 56
-14 91 0 51 -5 68 -25 96 -14 19 -25 44 -25 56 0 33 -10 54 -26 54 -8 0 -17 7
-20 15 -4 9 -19 15 -35 15 -24 0 -29 -4 -29 -24z m-250 -2126 c0 -13 -7 -20
-20 -20 -11 0 -23 0 -27 -1 -19 -2 -12 22 9 30 34 14 38 13 38 -9z m5810 -106
c0 -8 -5 -12 -10 -9 -6 4 -8 11 -5 16 9 14 15 11 15 -7z m-5644 -80 c42 -35
58 -73 32 -75 -29 -3 -124 2 -143 7 -71 20 -145 70 -145 98 0 3 48 6 106 6
l106 0 44 -36z m4724 -448 c0 -8 -4 -17 -10 -21 -13 -8 -60 5 -60 17 0 6 7 8
15 4 8 -3 15 -1 15 4 0 6 9 10 20 10 11 0 20 -6 20 -14z m-130 -38 c34 -11 34
-11 9 -21 -14 -5 -19 -11 -11 -14 22 -8 13 -33 -12 -33 -19 0 -26 7 -31 30 -6
25 -1 50 9 50 2 0 18 -5 36 -12z m90 -157 c0 -29 38 -89 61 -96 25 -8 69 2 69
15 0 16 27 12 34 -5 3 -10 19 -15 44 -15 49 0 62 -14 62 -69 0 -37 -5 -50 -27
-68 -27 -24 -40 -27 -67 -17 -11 4 -16 19 -16 49 0 41 -2 44 -36 55 -19 7 -38
9 -41 6 -4 -3 -15 1 -25 11 -17 15 -19 15 -36 0 -10 -10 -25 -17 -33 -17 -18
0 -54 -25 -54 -37 0 -4 -11 -22 -24 -40 -33 -44 -59 -31 -59 31 0 36 4 45 24
55 20 9 24 18 24 55 0 26 -5 46 -12 49 -8 3 -6 8 7 13 11 4 22 10 25 13 5 6
58 28 73 30 4 1 7 -8 7 -18z m425 -111 c3 -5 -1 -10 -9 -10 -9 0 -16 5 -16 10
0 6 4 10 9 10 6 0 13 -4 16 -10z m595 -37 c-1 -5 -8 -19 -16 -33 -8 -14 -13
-17 -10 -7 3 10 6 25 6 33 0 8 5 14 10 14 6 0 10 -3 10 -7z m120 -284 c0 -5
-4 -9 -10 -9 -5 0 -10 7 -10 16 0 8 5 12 10 9 6 -3 10 -10 10 -16z m-2440
-199 c0 -5 -7 -10 -16 -10 -8 0 -12 5 -9 10 3 6 10 10 16 10 5 0 9 -4 9 -10z
m161 -30 c11 -6 19 -21 19 -35 0 -20 -5 -25 -27 -25 -28 0 -89 36 -98 58 -6
15 77 17 106 2z m-800 -793 c37 -31 69 -110 69 -169 0 -40 -5 -53 -27 -74 -14
-13 -31 -22 -37 -19 -6 3 -19 8 -28 11 -11 4 -24 28 -33 57 -17 57 -20 167 -5
167 5 0 12 11 16 25 7 30 12 30 45 2z m7 -383 c12 -8 22 -23 22 -34 0 -10 16
-32 36 -50 21 -18 33 -35 28 -38 -11 -8 -16 -84 -8 -129 4 -26 9 -32 27 -30
17 1 25 13 35 46 21 69 49 101 86 97 16 -2 32 -9 34 -17 3 -8 13 -22 23 -32
25 -23 27 -114 3 -131 -13 -10 -14 -16 -3 -39 10 -21 15 -24 26 -15 11 8 17 7
28 -8 24 -32 14 -64 -21 -64 -18 0 -24 -7 -29 -34 -4 -18 -5 -44 -3 -57 3 -22
8 -24 53 -23 28 0 64 4 81 8 26 7 35 4 53 -15 11 -12 21 -31 21 -41 0 -26 -48
-66 -87 -74 -18 -3 -33 -10 -33 -15 0 -5 -8 -13 -17 -16 -23 -9 -30 -16 -77
-80 -21 -29 -42 -53 -47 -53 -5 0 -9 -7 -9 -15 0 -9 -8 -19 -17 -22 -10 -4
-21 -11 -24 -16 -4 -6 -29 -6 -67 1 -34 6 -77 8 -96 5 -40 -6 -106 13 -106 31
0 7 -12 18 -26 25 -15 6 -24 15 -20 18 3 4 0 13 -8 22 -11 12 -12 28 -6 66 5
28 9 97 10 155 0 58 7 133 15 166 8 34 17 129 20 210 9 212 9 214 48 214 18 0
43 -7 55 -16z m312 -354 c0 -5 -4 -10 -10 -10 -5 0 -10 5 -10 10 0 6 5 10 10
10 6 0 10 -4 10 -10z m8070 -146 c41 -5 50 -11 60 -35 8 -17 20 -29 31 -29 14
0 19 -7 19 -29 0 -25 4 -30 37 -36 47 -9 93 -32 93 -47 0 -8 3 -9 11 -1 13 13
59 5 59 -11 0 -13 -20 -36 -31 -36 -4 0 -10 10 -13 23 -2 12 -4 1 -3 -25 2
-37 -1 -48 -13 -48 -11 -1 -11 -3 3 -11 18 -10 17 -12 -6 -24 -14 -7 -48 -16
-75 -20 -27 -3 -61 -13 -76 -20 -25 -13 -29 -12 -56 13 -22 21 -26 31 -19 45
6 9 7 22 4 27 -3 5 0 7 9 4 19 -7 49 37 40 60 -3 9 -7 16 -8 16 -18 -2 -77
-30 -90 -43 -10 -9 -23 -17 -31 -17 -7 0 -25 -6 -39 -14 -15 -8 -37 -11 -48
-8 -19 5 -20 10 -14 71 4 36 8 76 9 88 1 12 12 31 25 43 12 11 22 26 22 32 0
17 44 61 48 49 2 -6 25 -13 52 -17z m1520 -85 c0 -11 7 -19 15 -19 8 0 15 -8
15 -17 0 -13 9 -18 34 -20 24 -1 44 -12 70 -38 41 -40 42 -44 21 -71 -21 -27
-18 -62 10 -119 14 -27 25 -57 25 -66 0 -8 4 -19 9 -25 14 -15 42 -140 35
-158 -6 -15 -17 -20 -36 -17 -5 0 -8 -6 -8 -14 0 -9 -9 -15 -24 -15 -13 0 -26
7 -30 15 -7 20 -24 19 -29 -2 -3 -10 -5 5 -6 33 -1 37 -6 56 -20 68 -12 11
-19 30 -19 48 1 18 -6 36 -15 43 -10 7 -17 17 -17 23 0 6 -8 13 -18 16 -9 3
-23 20 -31 38 -8 18 -31 51 -52 72 -39 42 -70 117 -50 124 6 2 11 21 11 43 0
37 2 39 30 39 17 0 30 5 30 10 0 6 -7 10 -15 10 -18 0 -20 17 -3 22 27 9 68
-5 68 -23z m228 -637 c2 -14 10 -22 23 -22 10 0 19 -4 19 -10 0 -5 9 -19 21
-31 15 -15 20 -32 19 -67 -3 -72 -2 -75 28 -107 44 -47 59 -76 66 -127 4 -26
11 -50 17 -53 5 -4 9 -17 9 -31 0 -13 4 -24 9 -24 5 0 11 -18 15 -39 3 -21 13
-41 21 -45 8 -3 15 -10 15 -16 0 -20 26 -38 64 -45 23 -5 36 -3 36 4 0 7 8 8
26 1 14 -6 42 -10 61 -10 30 0 44 -8 79 -45 23 -25 48 -45 56 -45 8 0 23 -7
34 -15 10 -8 28 -15 38 -15 10 0 25 -8 32 -17 10 -15 15 -16 25 -5 19 18 27
15 45 -20 21 -41 43 -58 69 -55 17 2 19 -3 17 -28 -2 -16 -8 -31 -13 -33 -5
-2 -9 -9 -9 -16 0 -7 -16 -26 -35 -42 -19 -16 -35 -37 -35 -46 0 -13 -8 -18
-30 -18 -21 0 -30 -5 -30 -16 0 -9 -8 -18 -18 -21 -10 -2 -26 -18 -36 -34 -9
-16 -21 -29 -27 -29 -5 0 -9 -7 -9 -15 0 -16 -32 -49 -151 -155 -40 -36 -84
-77 -98 -91 -14 -15 -36 -29 -48 -33 -13 -4 -23 -14 -23 -22 0 -8 -7 -14 -16
-14 -9 0 -27 -9 -41 -20 -20 -16 -41 -20 -94 -20 -51 0 -70 -4 -77 -15 -5 -11
-27 -17 -63 -19 -30 -2 -75 -7 -100 -11 -55 -8 -109 14 -109 45 0 10 -6 25
-13 32 -8 7 -20 30 -26 51 -7 20 -17 37 -22 37 -5 0 -13 8 -17 19 -9 24 -93
117 -212 235 -157 156 -163 163 -145 170 8 3 16 0 19 -7 2 -7 5 -2 5 10 1 12
6 25 11 28 6 4 7 11 4 17 -5 8 -1 9 10 5 12 -5 21 3 34 31 19 42 32 54 49 47
8 -2 17 12 24 35 7 22 16 40 20 40 5 0 12 18 15 40 7 42 20 52 27 23 2 -10 2
-3 0 15 -3 25 -1 32 8 27 7 -5 25 7 46 30 32 34 35 43 30 82 -2 23 -1 40 4 37
13 -8 61 44 53 58 -5 7 -2 9 9 5 9 -3 17 -1 19 4 2 6 22 13 46 16 35 5 42 9
42 27 0 32 55 178 64 169 11 -12 26 20 19 42 -3 11 -14 32 -24 47 -22 30 -24
85 -5 111 8 11 27 17 50 17 20 0 36 5 36 11 0 20 35 4 38 -19z m-5446 -266 c4
-6 8 -21 8 -33 0 -12 5 -25 10 -28 14 -9 -6 -45 -41 -73 -31 -25 -30 -39 5
-77 55 -60 55 -60 -15 -71 -24 -4 -60 -15 -79 -25 -19 -9 -61 -20 -92 -24 -32
-3 -60 -10 -63 -15 -2 -4 -25 -11 -50 -14 -24 -4 -47 -12 -51 -18 -4 -5 -22
-16 -40 -24 -19 -8 -34 -19 -34 -24 0 -15 -37 -12 -43 4 -3 8 -3 17 1 21 4 4
7 10 7 14 0 4 17 24 38 43 20 19 37 39 37 43 0 12 44 55 58 55 6 0 12 5 12 11
0 11 54 69 65 69 3 0 22 18 42 40 21 22 41 40 45 40 4 0 26 18 49 40 23 22 50
42 60 45 11 4 19 11 19 16 0 13 42 1 52 -15z m786 -67 c9 -17 27 -47 40 -66
12 -18 22 -41 22 -50 0 -9 8 -22 18 -29 16 -13 16 -15 0 -28 -19 -14 -24 -41
-9 -51 12 -7 63 -97 58 -102 -11 -10 -87 -4 -107 9 -14 9 -42 21 -62 27 -20 7
-42 19 -48 27 -7 7 -21 14 -31 14 -11 0 -18 5 -16 12 2 13 -55 27 -117 27 -69
1 -26 20 53 23 l74 3 2 34 c2 18 7 36 12 40 4 3 17 31 27 61 31 90 54 103 84
49z m-5272 -4 c16 -14 33 -25 38 -25 5 0 19 -11 31 -24 23 -25 35 -104 40
-266 2 -41 8 -97 15 -123 10 -41 9 -56 -4 -98 -23 -70 -28 -441 -6 -479 10
-18 16 -77 20 -206 4 -137 9 -185 20 -199 8 -9 15 -24 16 -34 2 -9 6 -31 9
-48 7 -39 -10 -75 -33 -71 -13 2 -17 15 -18 58 0 31 -6 56 -12 58 -7 2 -12 9
-12 16 0 8 -8 24 -19 37 -10 13 -21 49 -25 79 -4 30 -12 60 -18 67 -6 7 -14
50 -19 95 -4 44 -13 84 -18 88 -6 3 -15 50 -22 105 -6 55 -15 107 -20 117 -6
11 -10 102 -9 206 1 257 -15 475 -41 528 -21 45 -24 80 -9 118 13 35 57 35 96
1z m9423 -6 c15 24 42 -14 50 -69 5 -30 12 -63 16 -72 5 -12 3 -18 -6 -18 -10
0 -10 -3 -1 -12 18 -18 14 -38 -7 -38 -10 0 -24 -7 -31 -15 -10 -13 -9 -15 9
-15 28 0 27 -11 -5 -40 -20 -20 -27 -22 -34 -10 -12 20 -36 -2 -50 -46 -10
-28 -16 -34 -41 -34 -24 0 -29 4 -29 24 0 14 -4 28 -10 31 -14 9 -12 18 8 41
13 15 17 37 17 99 0 76 1 80 26 92 16 8 37 33 50 61 17 35 24 42 27 28 3 -12
7 -15 11 -7z m-6101 -226 c-10 -2 -26 -2 -35 0 -10 3 -2 5 17 5 19 0 27 -2 18
-5z m1227 -83 c3 -5 14 -10 25 -10 10 0 28 -11 41 -25 13 -13 30 -25 37 -25
16 0 15 -16 -3 -44 -12 -18 -14 -39 -9 -95 4 -40 10 -67 15 -60 9 15 19 -75
17 -156 -2 -54 2 -65 33 -109 18 -26 39 -55 44 -65 6 -9 14 -19 18 -22 4 -3
10 -23 14 -45 3 -21 15 -49 26 -62 19 -20 21 -38 25 -180 2 -103 8 -167 17
-187 42 -95 84 -227 97 -305 6 -36 17 -69 24 -73 8 -4 14 -22 14 -40 0 -28 19
-77 20 -52 0 6 8 -6 17 -25 10 -19 20 -37 24 -40 3 -3 10 -19 13 -37 7 -30 5
-33 -26 -41 -54 -14 -104 4 -123 45 -10 20 -33 56 -51 80 -19 25 -34 53 -34
64 0 10 -9 27 -20 36 -11 10 -20 25 -20 35 0 9 -6 23 -13 30 -25 25 -58 100
-64 145 -3 24 -12 50 -19 58 -8 7 -17 38 -20 69 -4 32 -12 57 -20 60 -8 3 -14
15 -14 26 0 11 -9 28 -20 37 -16 14 -20 30 -20 78 0 39 -6 72 -18 95 -11 19
-22 64 -25 100 -3 36 -13 79 -21 95 -9 17 -16 44 -16 61 0 49 -11 94 -24 94
-6 0 -11 18 -11 43 -2 111 -19 274 -31 292 -8 11 -14 38 -14 60 0 32 6 47 28
67 38 36 75 48 87 28z m597 -119 c-10 -6 -2 -11 25 -16 25 -4 50 -19 74 -44
l35 -36 -23 -20 c-16 -14 -23 -31 -23 -57 0 -21 5 -38 10 -38 18 0 11 -18 -20
-48 -22 -23 -30 -40 -31 -69 -2 -57 1 -75 17 -90 16 -16 18 -33 5 -33 -5 0
-12 -12 -16 -27 -3 -15 -12 -31 -18 -35 -9 -6 -8 -11 3 -18 12 -7 13 -13 4
-27 -17 -27 -81 -19 -106 13 -11 13 -24 22 -28 19 -5 -3 -4 8 2 25 7 20 15 29
24 26 11 -4 14 7 14 49 0 30 -4 55 -10 55 -5 0 -10 18 -10 39 0 22 -5 41 -11
43 -6 2 -2 15 11 31 17 21 20 37 18 80 -4 53 -4 53 24 49 19 -3 30 1 34 11 6
18 -24 66 -42 67 -12 0 -25 46 -16 55 3 3 19 5 36 5 21 0 27 -3 18 -9z m3898
-311 c0 -5 -4 -10 -10 -10 -5 0 -10 5 -10 10 0 6 5 10 10 10 6 0 10 -4 10 -10z
m40 -49 c0 -4 22 -6 50 -3 40 4 59 -1 99 -22 28 -14 57 -26 66 -26 8 0 15 -6
15 -14 0 -8 15 -23 33 -35 42 -26 197 -191 197 -210 0 -4 8 -19 18 -32 10 -13
24 -44 32 -69 8 -25 18 -48 23 -51 6 -4 12 -31 14 -60 2 -30 9 -64 15 -76 6
-13 8 -46 4 -85 -4 -35 -9 -103 -11 -153 -2 -74 -7 -99 -29 -139 -14 -27 -26
-56 -26 -64 0 -27 -44 -136 -62 -154 -10 -10 -18 -21 -18 -25 0 -5 -16 -25
-35 -45 -19 -20 -35 -41 -35 -47 0 -13 -48 -61 -60 -61 -5 0 -14 -9 -20 -20
-6 -11 -17 -20 -25 -20 -7 0 -17 -9 -20 -20 -3 -11 -13 -20 -21 -20 -8 0 -14
-7 -14 -15 0 -8 -5 -15 -10 -15 -6 0 -35 -20 -66 -45 -30 -25 -64 -45 -75 -45
-11 0 -18 -4 -15 -9 3 -5 -11 -12 -32 -16 -20 -4 -50 -15 -67 -25 -16 -9 -48
-21 -69 -25 -21 -3 -48 -12 -60 -20 -12 -7 -46 -15 -76 -18 -30 -3 -68 -12
-85 -21 -40 -21 -346 -23 -386 -3 -14 8 -63 17 -109 21 -46 4 -87 11 -90 16
-3 5 -34 13 -70 19 -38 6 -67 17 -72 26 -5 8 -21 15 -36 15 -15 0 -40 9 -57
20 -16 11 -37 20 -46 20 -9 0 -28 9 -42 20 -14 11 -32 20 -39 20 -8 0 -24 11
-36 25 -12 14 -28 25 -36 25 -7 0 -28 16 -47 35 -19 19 -38 35 -43 35 -5 0
-31 20 -57 45 -26 25 -52 45 -57 45 -6 0 -12 10 -16 23 -3 12 -22 33 -42 47
-20 13 -41 34 -47 47 -6 13 -14 23 -19 23 -4 0 -8 4 -8 10 0 5 -18 28 -40 52
-22 24 -40 50 -40 58 0 9 -9 23 -20 33 -11 9 -20 25 -20 34 0 10 -7 30 -14 45
-24 45 -24 88 -1 88 8 0 15 -9 15 -20 0 -11 7 -23 15 -26 8 -3 17 -21 21 -40
10 -54 99 -135 123 -111 6 6 11 19 11 29 0 27 44 33 86 12 20 -11 44 -23 55
-29 10 -5 19 -15 19 -22 0 -18 29 -16 37 3 3 8 1 26 -5 38 -15 33 8 62 54 71
28 5 39 13 47 36 6 16 15 29 19 29 4 0 8 9 8 21 0 11 4 18 9 15 11 -7 32 17
33 41 1 10 -2 31 -5 46 -6 23 -12 27 -35 25 -23 -3 -27 1 -30 25 -3 23 0 27
21 27 19 0 26 6 31 31 3 17 6 43 6 57 0 14 11 35 25 48 14 13 25 31 26 41 1
10 5 2 9 -17 6 -22 5 -37 -2 -41 -6 -4 17 -7 50 -6 34 0 59 4 56 9 -3 4 10 8
29 8 58 0 97 11 97 28 0 8 6 23 14 31 8 9 16 35 18 57 2 23 12 49 21 59 21 21
21 29 1 61 -18 27 -13 96 9 123 7 8 12 21 13 30 1 9 2 24 3 33 0 10 13 19 32
23 17 4 32 12 35 19 7 18 54 19 54 1 0 -32 39 -56 86 -54 42 3 48 0 78 -36 33
-39 33 -39 73 -27 54 16 57 16 91 -13 31 -26 121 -48 108 -27 -5 9 0 9 19 2
30 -11 49 -5 42 15 -8 19 26 41 84 54 56 12 113 36 139 57 8 7 22 14 30 16 8
2 21 11 28 21 7 9 19 17 26 17 19 0 28 28 16 50 -13 24 -13 30 0 30 6 0 10 -4
10 -9z m-3606 -96 c3 -8 15 -15 26 -15 23 0 73 -47 64 -61 -3 -5 6 -13 20 -19
15 -5 28 -20 32 -35 3 -14 11 -25 16 -25 7 0 9 -16 5 -40 -3 -24 -1 -40 5 -40
7 0 8 -24 5 -67 -4 -38 -3 -93 1 -123 7 -50 9 -55 32 -54 14 1 28 -4 32 -10
10 -15 -2 -78 -18 -97 -9 -9 -14 -39 -14 -75 0 -53 -3 -63 -32 -94 -17 -19
-32 -42 -33 -51 -1 -8 -11 -25 -23 -37 -18 -18 -26 -20 -42 -12 -25 13 -25 26
-1 40 14 7 21 6 24 -3 3 -7 6 -6 6 5 1 9 7 18 14 21 9 3 7 9 -5 24 -10 11 -18
27 -18 36 0 9 -4 17 -9 17 -10 0 -22 52 -21 93 0 15 -4 36 -10 47 -7 13 -6 20
2 22 16 6 3 34 -21 48 -18 9 -21 8 -21 -8 0 -10 5 -23 12 -30 9 -9 9 -12 -4
-12 -12 0 -16 16 -21 74 -3 40 -10 82 -15 92 -21 40 -36 122 -36 191 0 40 -3
70 -7 67 -4 -2 -10 4 -13 13 -19 61 46 174 68 118z m3231 -114 c3 -5 1 -12 -5
-16 -5 -3 -10 1 -10 9 0 18 6 21 15 7z m-3020 -160 c3 -5 1 -12 -5 -16 -5 -3
-10 1 -10 9 0 18 6 21 15 7z m-1924 -93 c6 -12 19 -30 28 -40 22 -23 61 -96
61 -113 0 -7 4 -15 8 -17 10 -4 72 -96 72 -107 0 -4 9 -16 20 -26 11 -10 20
-24 20 -31 0 -8 9 -19 20 -26 11 -7 20 -18 20 -25 0 -6 18 -30 40 -53 22 -23
40 -48 40 -56 0 -8 7 -14 15 -14 9 0 20 -10 25 -22 5 -13 21 -32 35 -43 15
-11 48 -39 74 -62 27 -24 53 -43 60 -43 6 0 14 -7 17 -15 3 -8 14 -17 25 -20
10 -4 19 -12 19 -19 0 -6 15 -18 34 -24 19 -7 37 -20 40 -28 3 -8 10 -13 15
-10 4 3 16 -3 26 -14 10 -11 26 -20 35 -20 9 0 27 -9 39 -19 13 -11 36 -23 52
-26 16 -4 31 -11 35 -16 3 -5 20 -16 37 -25 95 -45 107 -55 107 -91 0 -14 5
-21 13 -18 22 8 35 -9 39 -51 2 -23 22 -75 43 -115 35 -65 40 -83 41 -144 1
-66 17 -130 50 -198 8 -16 14 -59 14 -95 0 -37 5 -85 11 -107 17 -62 23 -135
10 -135 -6 0 -11 -16 -11 -36 0 -19 4 -33 9 -30 14 9 24 -120 25 -349 1 -173
4 -225 16 -245 11 -20 15 -81 17 -303 1 -153 5 -282 8 -287 3 -5 -5 -21 -18
-35 -22 -26 -30 -28 -145 -36 -68 -4 -128 -11 -134 -15 -7 -4 -104 -11 -217
-15 -113 -4 -280 -13 -371 -20 -195 -14 -227 -15 -237 -5 -4 4 -11 40 -14 79
-4 40 -12 99 -19 132 -6 33 -13 110 -16 170 -7 192 -24 448 -34 500 -5 28 -12
131 -16 230 -12 354 -24 602 -33 715 -5 63 -10 176 -11 250 -1 74 -5 169 -11
210 -9 74 -28 254 -29 277 0 16 -30 5 -30 -12 0 -7 -19 -15 -46 -19 -71 -9
-106 20 -68 58 19 20 110 22 117 4 4 -10 7 -10 18 0 20 18 16 288 -5 452 -14
109 -18 220 -8 220 6 0 17 -10 23 -22z m4070 12 c10 -6 19 -17 19 -25 0 -18
-16 -20 -26 -4 -5 8 -8 8 -13 0 -5 -8 -13 -7 -26 2 -35 26 4 49 46 27z m3419
-190 c0 -5 -4 -10 -10 -10 -5 0 -10 5 -10 10 0 6 5 10 10 10 6 0 10 -4 10 -10z
m-10549 -22 c22 -24 21 -21 13 -43 -11 -29 -50 -36 -89 -17 -34 17 -48 52 -21
52 7 0 19 7 26 15 18 21 50 19 71 -7z m-1470 -99 c-4 -53 -11 -67 -23 -45 -5
9 -13 14 -19 11 -13 -9 -11 3 8 47 22 50 38 44 34 -13z m2104 -24 c34 -37 91
-79 123 -89 11 -4 23 -13 26 -21 3 -8 14 -15 24 -15 17 0 82 -76 82 -96 0 -4
7 -12 16 -18 9 -7 12 -18 8 -29 -8 -23 -20 -22 -27 3 -3 11 -11 19 -18 18 -7
-2 -18 7 -24 19 -6 13 -30 36 -53 53 -23 17 -42 35 -42 40 0 6 -13 10 -29 10
-28 0 -112 39 -143 67 -10 9 -18 24 -18 34 0 9 -5 19 -12 21 -22 8 1 38 29 38
19 0 37 -11 58 -35z m2735 -20 c0 -8 -4 -15 -10 -15 -5 0 -10 7 -10 15 0 8 5
15 10 15 6 0 10 -7 10 -15z m3007 -17 c-3 -8 -6 -5 -6 6 -1 11 2 17 5 13 3 -3
4 -12 1 -19z m-2968 -47 c8 -14 7 -20 -4 -25 -11 -4 -15 2 -15 19 0 30 6 32
19 6z m3012 -1 c7 -18 0 -50 -11 -50 -6 0 -30 52 -30 65 0 10 36 -3 41 -15z
m-7174 -97 c4 -91 3 -93 -19 -93 -13 0 -29 4 -37 9 -15 10 -28 109 -17 136 3
8 5 18 5 22 -1 9 32 22 50 20 11 -2 15 -25 18 -94z m7563 58 c0 -11 -4 -23
-10 -26 -6 -4 -10 5 -10 19 0 14 5 26 10 26 6 0 10 -9 10 -19z m-3364 -29
c-10 -10 -29 15 -21 28 6 9 10 8 17 -4 6 -10 7 -20 4 -24z m-2306 8 c0 -5 -7
-10 -15 -10 -8 0 -15 5 -15 10 0 6 7 10 15 10 8 0 15 -4 15 -10z m2368 -26
c23 -16 31 -64 11 -64 -6 0 -8 7 -5 16 3 8 2 12 -3 9 -5 -3 -12 -1 -16 5 -3 5
-15 10 -26 10 -18 0 -26 20 -12 33 10 11 27 8 51 -9z m-3968 -41 c0 -13 -4
-23 -8 -23 -5 0 -16 -19 -26 -41 -16 -36 -17 -46 -6 -80 7 -21 16 -36 20 -34
17 11 27 -23 20 -70 -4 -28 -8 -38 -9 -22 0 15 -5 27 -11 27 -5 0 -10 7 -10
15 0 8 -4 15 -9 15 -19 0 -71 55 -71 75 0 11 -6 29 -14 40 -7 11 -16 36 -20
57 -9 50 7 63 82 64 58 0 62 -1 62 -23z m5327 5 c-3 -8 -6 -5 -6 6 -1 11 2 17
5 13 3 -3 4 -12 1 -19z m-1287 -47 c0 -11 -26 -22 -34 -14 -12 12 -5 23 14 23
11 0 20 -4 20 -9z m55 -41 c3 -5 1 -10 -4 -10 -6 0 -11 5 -11 10 0 6 2 10 4
10 3 0 8 -4 11 -10z m5392 -12 c-3 -8 -6 -5 -6 6 -1 11 2 17 5 13 3 -3 4 -12
1 -19z m-27 -60 c0 -23 -12 -58 -19 -58 -4 0 -5 16 -3 35 4 32 22 51 22 23z
m-6550 -38 c13 -9 13 -10 0 -11 -10 0 -8 -3 5 -8 13 -6 4 -8 -28 -6 -27 2 -51
6 -54 9 -4 3 -18 6 -32 6 -21 0 -23 2 -11 10 8 5 35 10 60 10 25 0 52 -5 60
-10z m2746 -17 c-2 -2 -11 0 -20 3 -14 5 -15 9 -5 15 12 7 34 -10 25 -18z
m-2882 -2 c4 -5 -3 -7 -14 -4 -23 6 -26 13 -6 13 8 0 17 -4 20 -9z m263 3 c-3
-3 -12 -4 -19 -1 -8 3 -5 6 6 6 11 1 17 -2 13 -5z m1303 -34 c0 -5 -4 -10 -9
-10 -6 0 -13 5 -16 10 -3 6 1 10 9 10 9 0 16 -4 16 -10z m1008 -27 c-4 -23
-68 -32 -68 -9 0 8 12 16 28 19 15 2 31 5 35 6 5 0 7 -7 5 -16z m-5274 -103
c17 0 21 -27 10 -67 -13 -47 -46 -15 -69 64 -10 36 5 50 26 25 9 -12 24 -22
33 -22z m7165 -117 c-9 -10 -6 -13 12 -14 13 0 18 -3 11 -6 -9 -3 -10 -9 -2
-18 14 -17 -4 -65 -25 -65 -22 0 -65 30 -65 45 0 8 -6 15 -12 18 -7 2 -6 3 2
2 15 -2 40 17 40 31 0 3 -11 3 -25 0 -33 -8 -44 17 -20 43 16 19 17 19 56 -2
30 -16 36 -23 28 -34z m-1909 17 c0 -6 -25 -9 -57 -8 l-58 1 55 7 c30 4 56 7
58 8 1 1 2 -2 2 -8z m-5242 -49 c3 -32 -11 -61 -24 -49 -3 4 -8 25 -11 48 -5
37 -4 42 13 38 13 -2 20 -13 22 -37z m2702 -20 c0 -16 -19 -23 -40 -16 -30 10
-24 25 10 25 17 0 30 -4 30 -9z m2578 -15 c2 -10 -5 -26 -16 -36 -19 -18 -20
-18 -25 2 -7 26 10 61 26 55 7 -2 14 -12 15 -21z m-2328 -75 c14 -28 13 -47
-6 -65 -14 -15 -19 -14 -57 6 -66 35 -68 37 -54 59 17 27 102 27 117 0z m2350
-21 c0 -30 -4 -40 -16 -40 -12 0 -15 6 -10 23 3 12 6 30 6 40 0 9 5 17 10 17
6 0 10 -18 10 -40z m-5374 0 c22 0 34 -5 34 -14 0 -15 -88 -29 -103 -16 -13
11 4 42 20 36 8 -3 30 -6 49 -6z m7251 -64 c16 -15 24 -30 20 -40 -9 -23 -37
-8 -37 20 0 15 -6 24 -15 24 -8 0 -15 5 -15 10 0 17 20 11 47 -14z m-1957 -16
c0 -32 -14 -40 -24 -15 -6 18 2 45 15 45 5 0 9 -13 9 -30z m-5192 -84 c7 -4
12 -21 12 -37 0 -27 -3 -30 -25 -27 -14 2 -24 6 -23 10 2 4 -6 13 -16 21 -39
29 9 60 52 33z m-70 -55 c3 -8 -1 -12 -9 -9 -7 2 -15 10 -17 17 -3 8 1 12 9 9
7 -2 15 -10 17 -17z m8962 9 c0 -5 -2 -10 -4 -10 -3 0 -8 5 -11 10 -3 6 -1 10
4 10 6 0 11 -4 11 -10z m-1697 -80 c3 -11 1 -23 -4 -26 -5 -3 -9 6 -9 20 0 31
6 34 13 6z m3442 -80 c-3 -5 -10 -10 -16 -10 -5 0 -9 5 -9 10 0 6 7 10 16 10
8 0 12 -4 9 -10z m-425 -85 c7 -8 19 -15 26 -15 8 0 14 -4 14 -10 0 -5 -18
-10 -40 -10 -32 0 -40 4 -40 18 0 33 20 42 40 17z m153 8 c-7 -2 -19 -2 -25 0
-7 3 -2 5 12 5 14 0 19 -2 13 -5z m47 -43 c0 -5 -6 -10 -14 -10 -8 0 -18 5
-21 10 -3 6 3 10 14 10 12 0 21 -4 21 -10z m-1040 -285 c0 -8 -2 -15 -4 -15
-2 0 -6 7 -10 15 -3 8 -1 15 4 15 6 0 10 -7 10 -15z m-1856 -321 c8 -20 -1
-34 -20 -34 -8 0 -14 10 -14 25 0 28 24 34 34 9z m4279 -266 c-3 -32 -10 -58
-14 -58 -5 0 -9 -13 -9 -30 0 -59 -47 -22 -56 44 -6 48 17 117 44 127 20 8 22
14 17 51 -3 33 -1 29 9 -16 8 -34 12 -84 9 -118z m4 140 c-3 -8 -6 -5 -6 6 -1
11 2 17 5 13 3 -3 4 -12 1 -19z m320 -59 c7 -19 12 -30 12 -25 1 17 30 -28 31
-47 0 -11 9 -30 20 -44 11 -14 20 -31 20 -38 0 -7 7 -15 15 -19 8 -3 15 -9 14
-13 -4 -24 3 -45 21 -60 11 -10 20 -23 20 -29 0 -6 9 -23 20 -37 21 -27 27
-72 9 -82 -13 -9 -57 39 -65 70 -3 13 -12 29 -20 36 -8 6 -14 17 -14 24 0 7
-6 18 -14 24 -8 7 -18 25 -21 41 -3 16 -15 38 -26 51 -10 12 -19 29 -19 38 0
9 -9 27 -20 41 -11 14 -20 30 -20 37 0 6 -8 19 -17 29 -16 15 -16 17 2 30 26
19 38 13 52 -27z m-7287 -345 c0 -8 5 -14 10 -14 6 0 10 -29 10 -68 0 -69 19
-122 61 -168 26 -28 24 -66 -6 -94 -20 -19 -32 -22 -70 -18 -60 7 -77 29 -69
86 4 24 7 92 8 150 1 112 14 156 41 146 8 -4 15 -12 15 -20z m6960 -271 c0
-10 3 -28 7 -41 5 -21 3 -23 -23 -20 -35 4 -43 32 -17 58 23 24 33 25 33 3z
m-342 -50 c-4 -32 -16 -37 -42 -18 -25 19 -14 45 19 45 23 0 26 -4 23 -27z
m-2383 -163 c3 -5 1 -10 -4 -10 -6 0 -11 5 -11 10 0 6 2 10 4 10 3 0 8 -4 11
-10z m2739 -265 c11 -72 -7 -104 -40 -71 -16 17 -19 66 -4 66 6 0 10 11 10 23
0 13 3 27 6 30 13 12 22 -3 28 -48z m86 -197 c0 -16 4 -28 10 -28 5 0 8 -6 6
-12 -15 -49 -16 -68 -1 -68 11 0 15 -12 15 -50 0 -27 5 -50 10 -50 6 0 10 -5
10 -11 0 -7 7 -17 15 -23 22 -16 24 -59 3 -64 -30 -6 -65 38 -72 92 -3 28 -11
53 -16 56 -14 9 -29 107 -23 150 10 68 42 73 43 8z m1820 -98 c0 -5 -4 -10
-10 -10 -5 0 -10 5 -10 10 0 6 5 10 10 10 6 0 10 -4 10 -10z m200 -230 c0 -5
-4 -10 -10 -10 -5 0 -10 5 -10 10 0 6 5 10 10 10 6 0 10 -4 10 -10z m40 -50
c0 -10 7 -23 15 -30 24 -20 10 -23 -19 -5 -18 12 -26 26 -26 47 0 26 2 29 15
18 8 -7 15 -20 15 -30z m-1720 -170 c12 -45 -2 -263 -18 -283 -6 -6 -13 -33
-17 -59 -4 -27 -11 -48 -15 -48 -4 0 -13 -18 -20 -40 -7 -22 -16 -40 -20 -40
-13 0 -30 -51 -30 -90 0 -27 -7 -47 -23 -64 -29 -31 -37 -25 -37 26 0 31 4 38
19 38 18 0 19 6 14 78 -5 64 -3 81 11 94 9 9 20 46 25 83 5 36 14 72 19 78 5
7 15 45 22 85 7 40 17 75 22 78 4 3 8 16 8 29 0 25 16 75 24 75 3 0 10 -18 16
-40z m-1370 -310 c0 -36 -4 -52 -15 -56 -10 -4 -15 -20 -15 -48 0 -22 -7 -66
-16 -96 -29 -100 -55 -234 -63 -322 -4 -48 -13 -93 -19 -101 -7 -8 -15 -36
-18 -63 -4 -27 -15 -58 -24 -69 -10 -11 -20 -29 -22 -39 -1 -11 -9 -21 -15
-24 -19 -6 -17 92 1 107 8 7 16 38 19 74 3 34 12 91 21 127 9 36 20 92 25 125
13 87 40 178 57 191 9 7 14 30 14 62 0 63 17 113 30 92 7 -11 10 -5 10 22 0
20 3 43 6 52 12 32 24 15 24 -34z m-540 -350 c0 -27 -7 -70 -16 -96 -11 -34
-14 -65 -10 -108 11 -106 -27 -241 -79 -278 -5 -4 -10 -12 -10 -18 0 -6 -7
-15 -15 -20 -13 -8 -13 -10 -1 -10 11 0 10 -3 -3 -13 -10 -7 -22 -35 -27 -62
-5 -27 -13 -51 -18 -54 -4 -4 -11 -22 -15 -43 -4 -20 -13 -38 -20 -41 -8 -3
-17 -25 -21 -49 -4 -23 -16 -59 -26 -78 -11 -19 -19 -38 -19 -43 0 -5 -7 -15
-15 -23 -8 -9 -15 -29 -15 -46 0 -16 -8 -42 -19 -56 -10 -15 -21 -42 -24 -60
-4 -18 -14 -40 -22 -48 -8 -9 -15 -29 -15 -45 0 -17 -8 -36 -21 -47 -11 -9
-26 -28 -32 -42 l-11 -25 -4 24 c-5 32 7 91 18 91 6 0 13 18 16 41 4 22 13 43
20 46 8 3 14 15 14 27 0 11 9 35 20 51 11 17 20 41 20 55 0 39 11 70 24 70 7
0 13 18 14 43 3 56 11 77 27 77 8 0 15 12 17 28 2 15 8 26 14 25 6 -1 14 15
18 36 3 21 15 50 26 64 11 14 20 35 20 46 0 12 6 24 14 27 8 3 18 20 22 37 3
18 12 35 18 39 15 10 35 117 50 279 8 81 20 148 29 165 9 16 18 41 22 57 3 15
12 27 20 27 11 0 15 -12 15 -50z m3238 -78 c2 -12 8 -22 13 -22 5 0 9 -4 9
-10 0 -18 -28 -11 -44 11 -16 23 -11 52 8 46 6 -2 12 -13 14 -25z m-3673 -22
c5 -31 2 -48 -14 -76 -12 -19 -21 -41 -21 -48 0 -7 -9 -21 -20 -31 -11 -10
-20 -26 -20 -36 0 -26 -18 -33 -25 -9 -8 25 3 79 19 100 7 8 13 31 15 50 3 31
36 88 53 89 3 1 9 -17 13 -39z m3705 -54 c0 -7 11 -25 24 -39 14 -15 27 -36
31 -47 3 -11 10 -20 14 -20 5 0 11 -16 14 -35 3 -19 15 -47 26 -62 12 -14 21
-39 21 -54 0 -18 5 -29 14 -29 8 0 17 -15 21 -37 4 -21 15 -49 26 -64 10 -15
19 -34 19 -42 0 -8 7 -17 15 -21 8 -3 15 -14 15 -24 0 -11 7 -25 15 -32 8 -7
15 -18 15 -24 0 -6 14 -38 30 -71 16 -33 30 -68 30 -78 0 -10 7 -20 15 -23 8
-4 15 -14 15 -23 0 -9 8 -30 18 -46 11 -17 21 -52 24 -79 3 -27 10 -51 16 -55
6 -3 13 -24 17 -46 4 -22 16 -55 26 -73 10 -18 19 -42 19 -53 0 -11 6 -27 14
-35 9 -9 17 -48 22 -105 5 -71 11 -95 25 -108 11 -8 19 -23 19 -32 0 -9 6 -22
14 -28 8 -6 19 -31 25 -56 6 -24 15 -47 21 -50 5 -3 10 -28 10 -54 0 -37 6
-54 25 -75 16 -18 25 -39 25 -60 0 -19 7 -39 15 -46 16 -14 20 -36 7 -44 -13
-8 -92 100 -99 136 -3 18 -11 40 -18 48 -7 8 -16 31 -20 50 -4 19 -15 46 -25
60 -9 14 -20 43 -23 64 -4 22 -12 43 -18 47 -6 4 -14 31 -16 60 -3 30 -12 70
-21 89 -8 19 -17 58 -20 85 -2 28 -10 55 -17 60 -7 6 -16 29 -20 52 -3 23 -13
47 -21 54 -8 6 -14 22 -14 35 0 12 -7 30 -16 39 -9 8 -22 37 -29 63 -7 26 -20
65 -29 87 -9 22 -21 49 -25 60 -5 11 -18 45 -31 75 -12 30 -25 71 -28 90 -4
31 -32 79 -68 117 -7 7 -15 28 -18 48 -4 19 -11 35 -16 35 -5 0 -12 16 -16 35
-3 19 -12 39 -20 46 -8 6 -14 21 -14 34 0 12 -9 30 -20 40 -11 10 -23 35 -26
56 -4 21 -13 40 -20 43 -16 6 -20 76 -4 76 6 0 10 -6 10 -14z m-1622 -83 c13
-23 -5 -71 -29 -78 -10 -4 -19 -13 -19 -21 0 -8 -7 -14 -16 -14 -9 0 -18 -8
-21 -18 -2 -10 -19 -25 -36 -34 -32 -16 -77 -29 -77 -23 0 16 45 74 69 90 17
11 36 33 42 50 13 32 46 64 66 65 7 0 16 -8 21 -17z m-2199 -150 c-2 -22 -11
-44 -21 -51 -10 -7 -18 -20 -18 -28 0 -8 -7 -14 -15 -14 -8 0 -17 -14 -21 -35
-7 -38 -19 -52 -27 -32 -8 21 4 67 18 67 7 0 15 18 19 40 4 23 11 38 16 35 6
-4 13 7 16 24 10 46 36 41 33 -6z m2575 -65 c0 -37 -6 -50 -32 -76 -18 -17
-32 -35 -32 -40 0 -5 -10 -18 -23 -30 -13 -12 -34 -42 -46 -67 -12 -25 -27
-45 -32 -45 -5 0 -9 -8 -9 -17 -1 -22 -23 -53 -38 -53 -7 0 -15 -12 -18 -27
-4 -16 -24 -45 -45 -66 -22 -21 -39 -42 -39 -48 0 -6 -6 -16 -12 -24 -7 -7
-22 -25 -33 -40 -11 -14 -30 -36 -42 -47 -13 -12 -23 -28 -23 -35 0 -8 -7 -16
-15 -19 -8 -3 -19 -21 -25 -39 -6 -18 -22 -40 -35 -49 -41 -27 -75 -66 -75
-86 0 -11 -9 -24 -20 -30 -11 -6 -20 -17 -20 -25 0 -8 -6 -18 -14 -22 -7 -4
-21 -21 -30 -38 -29 -52 -41 -69 -58 -83 -10 -7 -18 -23 -18 -35 0 -13 -16
-36 -40 -57 -22 -19 -40 -40 -40 -46 0 -6 -17 -26 -37 -46 -21 -19 -53 -53
-72 -76 -18 -23 -42 -44 -52 -47 -11 -4 -19 -12 -19 -18 0 -7 -22 -27 -50 -45
-27 -18 -50 -37 -50 -42 0 -6 -4 -10 -10 -10 -5 0 -10 21 -10 46 0 27 4 43 10
39 6 -3 10 0 10 8 0 15 61 67 79 67 6 0 11 5 11 11 0 6 15 25 34 42 18 18 36
42 40 53 4 12 15 29 26 39 11 10 20 22 20 27 0 5 16 24 35 42 19 19 35 38 35
43 0 6 9 18 20 28 11 10 20 24 20 32 0 7 6 16 14 19 8 3 20 19 27 36 7 18 25
43 40 57 14 14 30 37 34 50 7 24 51 71 66 71 4 0 11 16 15 35 3 19 11 35 18
35 6 1 25 19 41 40 17 21 35 39 41 40 7 0 15 12 18 26 4 15 25 43 47 63 21 21
39 41 39 47 0 13 49 64 61 64 6 0 7 5 4 11 -4 6 14 29 39 53 28 25 46 50 46
64 0 12 6 22 14 22 7 0 19 13 26 29 6 16 18 32 26 35 8 3 14 15 14 27 0 12 8
23 20 26 11 3 20 14 20 24 0 11 4 19 8 19 5 0 23 20 41 45 18 25 29 45 26 45
-3 0 -3 5 0 11 15 22 30 0 29 -43z m-584 1 c0 -6 -9 -13 -20 -16 -11 -3 -20
-12 -20 -19 0 -8 -3 -14 -7 -15 -5 0 -18 -2 -30 -5 -13 -2 -23 1 -23 6 0 9 14
14 33 11 4 0 7 5 7 12 0 7 5 18 12 25 15 15 48 16 48 1z m-100 -76 c-1 -13
-34 -49 -62 -66 -16 -10 -28 -24 -28 -32 0 -8 -7 -15 -15 -15 -7 0 -18 -7 -23
-17 -10 -17 -42 -12 -42 7 0 16 91 100 109 100 6 0 11 7 11 15 0 9 9 15 25 15
14 0 25 -3 25 -7z m-2003 -49 c-3 -3 -12 -4 -19 -1 -8 3 -5 6 6 6 11 1 17 -2
13 -5z m920 -56 c-3 -8 -6 -5 -6 6 -1 11 2 17 5 13 3 -3 4 -12 1 -19z m-967
-43 c0 -16 -6 -25 -16 -25 -11 0 -14 5 -10 16 3 9 6 20 6 25 0 5 5 9 10 9 6 0
10 -11 10 -25z m929 -71 c-14 -39 -22 -22 -14 28 7 38 9 40 16 20 5 -13 4 -33
-2 -48z m-963 -1 c-4 -21 -16 -50 -27 -65 -10 -15 -19 -32 -19 -38 0 -5 -6
-10 -14 -10 -18 0 -5 73 18 99 9 9 16 25 16 34 0 9 7 17 16 17 13 0 15 -7 10
-37z m-67 -155 c-7 -13 -16 -30 -21 -38 -5 -8 -15 -30 -24 -48 -8 -18 -21 -35
-29 -39 -9 -3 -15 -18 -15 -34 0 -16 -4 -29 -9 -29 -4 0 -16 -26 -26 -57 -20
-63 -52 -123 -66 -123 -10 0 -12 60 -3 84 3 9 12 16 20 16 9 0 14 11 14 30 0
17 6 33 14 36 7 3 19 23 26 45 7 21 17 39 22 39 4 0 8 9 8 20 0 11 11 27 26
36 14 9 23 22 21 28 -8 21 12 56 33 56 18 0 19 -3 9 -22z m3893 -120 c-3 -12
-11 -34 -19 -48 -7 -14 -13 -33 -13 -42 0 -10 -6 -18 -14 -18 -7 0 -31 -20
-52 -45 -21 -25 -43 -44 -50 -41 -18 7 -37 -11 -40 -38 -3 -26 -53 -86 -72
-86 -5 0 -12 -13 -15 -29 -4 -18 -14 -32 -27 -36 -11 -3 -20 -10 -20 -15 0 -5
-13 -23 -30 -40 -16 -17 -30 -39 -30 -50 0 -13 -9 -22 -25 -26 -14 -3 -25 -10
-25 -15 0 -5 -6 -9 -14 -9 -8 0 -18 -9 -21 -20 -3 -11 -13 -20 -21 -20 -13 0
-18 -12 -15 -32 0 -5 -6 -8 -14 -8 -8 0 -19 -9 -25 -20 -13 -24 -30 -26 -30
-5 0 8 5 15 10 15 6 0 14 8 17 17 4 10 24 36 45 58 21 21 38 47 38 57 0 10 24
43 54 73 30 30 52 55 49 55 -2 0 7 12 21 28 53 56 76 85 76 93 0 5 18 19 40
31 22 13 40 30 40 38 0 17 93 130 119 144 9 5 25 20 36 33 25 29 35 29 27 1z
m-4116 -334 c-9 -6 -16 -20 -16 -31 0 -13 -8 -23 -21 -26 -19 -5 -21 -3 -15
26 4 18 16 40 29 49 12 9 19 20 15 24 -4 3 -2 16 5 28 11 19 12 18 15 -19 2
-27 -1 -43 -12 -51z m560 10 c-3 -27 -15 -56 -28 -70 -42 -43 -50 -26 -19 40
11 23 22 49 25 59 3 9 11 17 17 17 8 0 10 -14 5 -46z m4004 -88 c0 -21 -89
-106 -111 -106 -7 0 -18 -8 -25 -17 -12 -15 -15 -16 -23 -3 -11 16 -4 33 10
25 5 -4 9 3 9 14 0 11 11 28 25 37 14 9 25 25 25 35 0 25 49 50 72 38 10 -5
18 -16 18 -23z m-4662 -133 c-18 -26 -39 -60 -46 -75 -6 -16 -17 -28 -23 -28
-16 0 -4 72 15 85 8 6 17 27 21 48 4 20 13 41 21 48 8 6 14 17 14 23 0 7 6 18
13 25 10 10 13 3 15 -33 3 -37 -3 -53 -30 -93z m3116 34 c-8 -21 -23 -13 -19
11 2 9 4 19 4 22 1 2 6 -1 11 -6 6 -6 8 -18 4 -27z m-2554 0 c0 -16 -34 -67
-45 -67 -17 0 -8 41 13 58 15 11 32 16 32 9z m3925 -47 c3 -6 -1 -13 -9 -16
-9 -3 -16 -15 -16 -25 0 -10 -20 -40 -45 -66 -25 -25 -45 -52 -45 -59 0 -7 -6
-17 -13 -21 -15 -9 -42 -53 -83 -133 -16 -30 -31 -57 -35 -60 -3 -3 -14 -19
-24 -37 -10 -18 -22 -30 -27 -27 -4 3 -8 -4 -8 -16 0 -11 -9 -28 -20 -37 -11
-10 -20 -22 -20 -28 0 -5 -27 -39 -60 -75 -33 -36 -60 -71 -60 -77 0 -7 -7
-13 -15 -13 -8 0 -19 -9 -25 -20 -6 -11 -17 -20 -25 -20 -8 0 -15 -9 -15 -20
0 -22 -1 -23 -24 -14 -14 6 -14 10 5 43 24 40 70 111 82 126 7 9 74 110 102
153 16 25 23 35 50 68 14 18 25 41 25 53 0 12 6 21 13 21 7 0 19 15 25 34 7
19 26 49 42 66 17 18 30 38 30 45 0 7 12 21 26 31 15 10 36 30 48 43 40 45 60
61 78 61 10 0 18 7 18 15 0 17 16 20 25 5z m-3985 -55 c0 -8 -4 -17 -10 -20
-6 -4 -10 5 -10 20 0 15 4 24 10 20 6 -3 10 -12 10 -20z m2528 -27 c-3 -7 -11
-13 -19 -13 -8 0 -14 -7 -14 -15 0 -8 -4 -16 -10 -17 -5 -2 -10 2 -9 7 1 6 2
16 3 24 1 13 16 21 44 25 5 0 7 -5 5 -11z m-2568 -42 c0 -3 -4 -8 -10 -11 -5
-3 -10 -1 -10 4 0 6 5 11 10 11 6 0 10 -2 10 -4z m2500 -42 c0 -8 -6 -14 -14
-14 -9 0 -17 -15 -21 -40 -5 -30 -11 -40 -26 -40 -10 0 -19 -7 -19 -15 0 -8
-6 -15 -14 -15 -8 0 -21 -18 -30 -40 -9 -22 -18 -40 -20 -40 -2 0 -11 -3 -20
-6 -12 -4 -16 0 -16 16 0 16 4 20 15 16 10 -4 15 1 15 14 0 10 6 23 14 27 7 4
19 25 25 46 9 26 18 37 32 37 11 0 18 4 14 9 -3 5 3 16 13 23 10 7 21 21 25
31 8 20 27 14 27 -9z m617 -36 c-3 -8 -6 -5 -6 6 -1 11 2 17 5 13 3 -3 4 -12
1 -19z m-3703 -25 c-7 -26 -34 -39 -34 -17 0 8 5 25 11 36 13 25 31 11 23 -19z
m-37 -60 c-3 -10 -8 -31 -12 -47 -7 -34 -39 -78 -49 -69 -3 3 -6 23 -6 44 0
28 5 41 20 49 11 6 20 17 20 25 0 8 7 15 16 15 10 0 14 -6 11 -17z m2933 -129
c0 -16 -8 -28 -25 -36 -14 -6 -25 -17 -25 -24 0 -6 -7 -14 -15 -18 -8 -3 -15
-12 -15 -20 0 -7 -9 -16 -21 -19 -12 -3 -18 -10 -15 -15 3 -5 -11 -22 -30 -38
-20 -16 -42 -35 -49 -41 -20 -19 -25 -16 -25 12 0 14 7 28 15 31 8 4 15 15 15
25 0 10 6 19 13 19 6 0 28 18 47 40 19 22 41 40 48 40 6 0 12 9 12 20 0 11 7
20 15 20 8 0 15 6 15 14 0 15 20 26 33 19 4 -2 7 -15 7 -29z m2260 23 c0 -13
-52 -57 -68 -57 -4 0 -6 16 -4 35 4 32 7 35 38 35 21 0 34 -5 34 -13z m-3643
-34 c-3 -10 -5 -4 -5 12 0 17 2 24 5 18 2 -7 2 -21 0 -30z m-1097 3 c0 -8 -7
-16 -15 -20 -12 -4 -13 -2 -2 14 14 24 17 25 17 6z m4870 -63 c0 -13 5 -23 10
-23 6 0 10 -5 10 -11 0 -13 -42 -1 -52 15 -9 14 -10 60 -1 69 9 10 32 -25 33
-50z m-5403 30 c0 -23 -16 -45 -28 -37 -13 8 -11 21 7 38 19 20 21 20 21 -1z
m503 -19 c0 -8 -5 -12 -10 -9 -6 4 -8 11 -5 16 9 14 15 11 15 -7z m1094 -46
c-4 -35 -7 -68 -7 -75 0 -7 -3 -10 -7 -8 -4 3 -10 -25 -12 -60 -3 -36 -13 -76
-22 -89 -8 -14 -18 -44 -22 -68 -3 -24 -12 -52 -19 -63 -6 -11 -15 -37 -19
-57 -4 -21 -11 -38 -16 -38 -11 0 -25 -47 -22 -70 1 -8 -13 -33 -33 -55 -30
-35 -35 -37 -35 -18 0 12 7 28 15 37 9 8 15 19 15 23 -1 20 13 99 20 108 13
16 39 113 33 119 -4 3 -2 6 4 6 5 0 16 26 23 58 7 31 18 80 26 109 8 28 14 61
14 74 0 12 3 19 6 16 4 -3 15 -2 25 4 15 7 19 21 19 59 0 29 5 50 11 50 7 0 8
-20 3 -62z m3559 20 c-3 -18 -9 -35 -12 -38 -3 -3 -19 -25 -35 -50 -35 -55
-74 -90 -101 -88 -18 0 -18 1 -2 5 11 3 16 11 13 19 -3 8 3 31 14 52 11 20 20
41 20 47 0 6 15 17 34 23 22 8 36 21 40 37 4 14 13 25 21 25 11 0 13 -8 8 -32z
m-5205 -63 c-3 -3 -9 2 -12 12 -6 14 -5 15 5 6 7 -7 10 -15 7 -18z m5962 -35
c20 -21 30 -45 35 -80 4 -28 11 -50 16 -50 14 0 11 -68 -3 -72 -9 -3 -14 -73
-19 -259 -9 -314 -7 -287 -18 -270 -12 18 -18 -30 -27 -189 -3 -69 -11 -147
-16 -175 -6 -27 -13 -88 -17 -134 -4 -60 -10 -86 -20 -89 -12 -4 -13 22 -8
164 4 98 13 192 21 222 11 40 15 118 16 305 0 206 3 254 15 267 19 21 19 71 0
117 -8 19 -15 61 -16 92 0 31 -4 77 -8 103 -7 42 0 78 15 78 4 0 19 -14 34
-30z m-3134 -72 c-3 -13 -6 -29 -6 -35 0 -7 -7 -13 -15 -13 -9 0 -19 -8 -22
-17 -8 -19 -93 -103 -105 -103 -4 0 -8 -11 -8 -25 0 -16 -6 -25 -15 -25 -8 0
-15 -4 -15 -8 0 -5 -30 -40 -67 -78 -38 -39 -84 -90 -103 -114 -46 -57 -125
-140 -134 -140 -3 0 -14 -7 -23 -15 -93 -82 -103 -87 -103 -59 0 9 9 18 20 21
11 3 20 11 20 19 0 16 43 64 59 64 6 0 11 9 11 20 0 11 6 20 14 20 8 0 18 9
21 20 3 11 14 20 22 20 9 0 14 3 11 6 -4 3 9 21 28 41 19 19 34 38 34 42 0 4
11 14 25 21 13 7 22 17 19 22 -3 4 0 8 6 8 6 0 14 8 17 18 7 19 50 62 62 62 4
0 13 11 19 25 6 14 16 25 22 25 5 0 10 7 10 15 0 8 7 15 15 15 9 0 19 8 22 18
9 23 55 72 69 72 6 0 23 18 38 40 29 44 62 55 52 18z m2576 -146 c-3 -66 -7
-81 -17 -72 -13 11 -18 124 -8 164 4 15 7 16 17 5 9 -10 11 -40 8 -97z m-5512
51 c0 -32 -15 -60 -23 -46 -5 7 -3 51 2 71 1 1 6 2 11 2 6 0 10 -12 10 -27z
m5095 17 c3 -5 1 -10 -4 -10 -6 0 -11 -9 -11 -20 0 -11 -4 -20 -10 -20 -5 0
-16 -15 -24 -32 -8 -18 -30 -51 -50 -72 -20 -22 -36 -43 -36 -47 0 -4 -8 -9
-17 -13 -10 -3 -24 -9 -30 -12 -9 -4 -13 3 -13 20 0 15 7 29 15 32 8 4 15 11
15 16 0 18 55 97 68 98 6 0 12 6 12 14 0 8 11 17 25 20 14 4 25 13 25 21 0 17
26 20 35 5z m-795 -39 c0 -6 -4 -13 -10 -16 -5 -3 -10 1 -10 9 0 9 5 16 10 16
6 0 10 -4 10 -9z m-4340 -76 c0 -13 -5 -27 -10 -30 -7 -4 -10 6 -8 29 2 38 18
39 18 1z m-30 -64 c0 -27 -24 -60 -36 -48 -3 3 -2 21 1 41 9 44 35 49 35 7z
m2322 -93 c-6 -6 -12 1 -16 18 -4 15 -2 32 3 37 6 6 12 20 13 32 1 11 3 -2 5
-29 2 -27 0 -53 -5 -58z m-1862 48 c0 -3 -4 -8 -10 -11 -5 -3 -10 -1 -10 4 0
6 5 11 10 11 6 0 10 -2 10 -4z m3790 -11 c0 -8 -7 -15 -15 -15 -16 0 -20 12
-8 23 11 12 23 8 23 -8z m-4300 -55 c0 -29 -4 -40 -15 -40 -17 0 -18 4 -9 49
9 44 24 39 24 -9z m2351 -17 c1 -33 -4 -59 -15 -74 -15 -22 -16 -22 -17 -4 -2
47 4 101 13 118 14 26 18 17 19 -40z m1909 27 c0 -12 -24 -45 -52 -74 -29 -29
-55 -62 -56 -72 -2 -10 -12 -24 -23 -32 -10 -7 -19 -21 -19 -31 0 -10 -9 -28
-20 -41 -11 -13 -23 -34 -26 -47 -4 -13 -10 -23 -15 -23 -5 0 -9 -7 -9 -15 0
-8 -9 -20 -20 -27 -11 -7 -20 -18 -20 -25 0 -6 -9 -14 -19 -18 -11 -3 -25 -20
-30 -38 -6 -18 -27 -50 -46 -71 -19 -22 -35 -47 -35 -55 0 -9 -9 -22 -20 -29
-11 -7 -20 -19 -20 -27 0 -8 -7 -15 -15 -15 -8 0 -15 -7 -15 -15 0 -8 -7 -15
-15 -15 -20 0 -19 17 1 28 8 5 18 23 20 42 3 18 14 41 24 52 10 11 29 40 42
64 12 24 29 44 35 44 7 0 13 6 13 14 0 7 6 19 14 25 8 7 18 25 21 41 3 16 12
31 19 33 8 3 16 17 20 31 3 14 32 52 64 83 55 55 86 98 98 136 4 9 12 17 19
17 8 0 17 9 20 20 3 11 15 20 26 20 12 0 19 7 19 20 0 11 5 20 10 20 6 0 10
-9 10 -20z m-4338 -160 c-6 -44 -22 -47 -22 -6 0 23 5 36 13 36 9 0 12 -10 9
-30z m2386 -67 c-3 -30 -10 -58 -16 -62 -7 -4 -15 -29 -19 -57 -3 -27 -12 -53
-19 -59 -7 -5 -18 -29 -24 -52 -6 -24 -15 -43 -20 -43 -6 0 -10 -17 -10 -37 0
-50 -11 -88 -20 -73 -4 6 -13 -8 -20 -34 -13 -49 -30 -61 -30 -23 0 33 11 67
20 62 5 -3 11 18 15 46 4 29 13 53 21 56 9 3 14 21 14 53 0 31 6 56 19 71 10
13 21 45 25 71 4 25 14 52 21 58 8 7 15 27 15 45 0 35 8 48 23 38 5 -3 7 -30
5 -60z m2698 -26 c-3 -34 -6 -80 -6 -102 -1 -34 -2 -37 -12 -21 -11 19 -12
192 -1 209 13 21 24 -28 19 -86z m-2576 -57 c0 -5 -4 -10 -10 -10 -5 0 -10 5
-10 10 0 6 5 10 10 10 6 0 10 -4 10 -10z m3162 -508 c-3 -111 -8 -161 -18
-172 -9 -11 -15 -60 -19 -150 -8 -177 -14 -228 -26 -209 -12 19 -1 360 12 375
6 7 14 80 18 161 7 146 15 188 31 164 4 -7 5 -83 2 -169z m-1882 48 c0 -5 -2
-10 -4 -10 -3 0 -8 5 -11 10 -3 6 -1 10 4 10 6 0 11 -4 11 -10z m604 -79 c-4
-9 -9 -77 -11 -151 -4 -132 -15 -181 -29 -125 -7 27 4 283 12 297 9 15 35 -4
28 -21z m568 -278 c0 -32 -5 -59 -11 -61 -6 -2 -11 -12 -11 -23 0 -10 -4 -19
-9 -19 -6 0 -7 -16 -4 -35 3 -22 2 -35 -5 -35 -16 0 -19 41 -6 75 7 17 15 63
19 103 9 88 28 85 27 -5z m-622 -184 c0 -31 -4 -48 -10 -44 -17 11 -12 95 7
95 2 0 3 -23 3 -51z m1253 -166 c-7 -161 -23 -186 -23 -36 0 64 4 114 10 118
6 3 10 15 10 26 0 10 2 19 4 19 2 0 2 -57 -1 -127z m-665 22 l-1 -40 -7 45 -7
45 -1 -53 c-1 -33 2 -51 8 -47 6 3 10 1 10 -4 0 -6 -5 -11 -11 -11 -7 0 -9
-16 -4 -50 6 -43 5 -49 -9 -44 -13 5 -16 -3 -17 -52 -3 -257 -5 -292 -18 -307
-9 -12 -13 -45 -12 -114 0 -54 -3 -123 -9 -153 -5 -30 -11 -86 -14 -125 -3
-38 -10 -97 -16 -130 -5 -33 -10 -61 -10 -62 0 -2 -7 -3 -16 -3 -13 0 -15 18
-13 135 2 74 7 135 11 135 5 0 8 28 7 63 -1 34 6 87 15 117 9 30 16 80 16 111
0 36 5 61 14 68 10 8 15 58 21 191 4 99 11 178 15 175 5 -3 11 25 15 62 3 38
8 79 11 92 8 38 24 5 22 -44z m637 -279 c13 -31 13 -40 -4 -89 -10 -31 -16
-69 -13 -85 2 -16 0 -32 -6 -36 -11 -7 -24 140 -16 187 12 69 19 72 39 23z
m-54 -387 c0 -62 -5 -115 -10 -118 -5 -3 -15 -28 -23 -56 l-15 -49 -6 44 c-4
30 -1 50 7 60 8 9 14 46 15 90 2 41 7 82 12 92 5 9 9 21 8 25 -3 17 1 36 7 30
3 -3 6 -56 5 -118z m-44 -286 c-3 -10 -5 -4 -5 12 0 17 2 24 5 18 2 -7 2 -21
0 -30z m-38 -175 c-1 -53 -4 -76 -10 -63 -14 36 -9 145 7 145 2 0 3 -37 3 -82z
m-29 -223 c0 -63 -4 -88 -16 -99 -37 -37 -48 -13 -30 61 9 32 18 75 21 96 10
64 25 30 25 -58z m-46 -147 c10 -37 6 -72 -9 -92 -8 -11 -18 -17 -21 -13 -4 4
-3 12 3 19 5 7 9 34 8 61 -1 50 9 62 19 25z m341 -227 c-13 -14 -15 -8 -15 62
0 45 4 77 10 77 6 0 11 8 12 18 1 9 4 -19 5 -62 3 -62 0 -83 -12 -95z m-375 5
c0 -3 -4 -8 -10 -11 -5 -3 -10 -1 -10 4 0 6 5 11 10 11 6 0 10 -2 10 -4z m347
-38 c-3 -8 -6 -5 -6 6 -1 11 2 17 5 13 3 -3 4 -12 1 -19z m-361 -74 c-3 -8
-10 -14 -17 -14 -11 0 -4 74 10 95 8 12 14 -62 7 -81z m361 -6 c-3 -7 -5 -2
-5 12 0 14 2 19 5 13 2 -7 2 -19 0 -25z m-403 -156 c-16 -16 -17 -15 -11 8 3
14 9 43 14 65 l8 40 3 -48 c2 -34 -2 -52 -14 -65z"/>
<path d="M12915 13239 c-11 -17 1 -21 15 -4 8 9 8 15 2 15 -6 0 -14 -5 -17
-11z"/>
<path d="M9768 11883 c7 -3 16 -2 19 1 4 3 -2 6 -13 5 -11 0 -14 -3 -6 -6z"/>
<path d="M12481 10894 c0 -11 3 -14 6 -6 3 7 2 16 -1 19 -3 4 -6 -2 -5 -13z"/>
<path d="M14000 10535 c0 -27 3 -28 38 -19 22 6 22 8 6 25 -24 27 -44 24 -44
-6z"/>
<path d="M13933 10233 c-7 -2 -13 -11 -13 -19 0 -8 6 -14 13 -14 21 0 40 17
33 29 -8 12 -13 12 -33 4z"/>
<path d="M12967 10143 c-13 -12 -7 -23 13 -23 11 0 20 7 20 15 0 15 -21 21
-33 8z"/>
<path d="M12818 10102 c-7 -10 -21 -21 -30 -25 -20 -7 -23 -76 -4 -78 49 -5
72 11 85 59 9 29 7 38 -7 48 -23 18 -29 17 -44 -4z"/>
<path d="M13648 10083 c6 -2 18 -2 25 0 6 3 1 5 -13 5 -14 0 -19 -2 -12 -5z"/>
<path d="M13754 10049 c3 -17 6 -37 6 -43 0 -6 9 4 20 22 23 37 19 52 -12 52
-18 0 -20 -4 -14 -31z"/>
<path d="M13583 10030 c-13 -5 -23 -13 -23 -18 0 -4 -13 -22 -30 -39 -16 -16
-27 -33 -23 -37 14 -13 76 -5 100 14 14 11 31 20 37 20 6 0 19 9 28 20 16 17
16 21 2 35 -17 17 -57 19 -91 5z"/>
<path d="M19861 3264 c0 -11 3 -14 6 -6 3 7 2 16 -1 19 -3 4 -6 -2 -5 -13z"/>
<path d="M5582 16320 c-18 -38 -19 -42 -3 -75 21 -45 54 -47 76 -5 8 16 15 38
15 50 0 21 -41 70 -59 70 -5 0 -18 -18 -29 -40z"/>
<path d="M6113 15964 c-8 -20 2 -27 26 -19 27 8 27 21 0 28 -12 3 -22 0 -26
-9z"/>
<path d="M16620 12141 c0 -6 -13 -17 -28 -25 -30 -15 -41 -56 -16 -56 8 0 17
7 20 15 4 10 13 13 25 10 16 -5 19 -1 19 24 0 16 -4 33 -10 36 -5 3 -10 2 -10
-4z"/>
<path d="M16670 11476 c-14 -37 -14 -36 19 -36 23 0 31 -5 34 -22 3 -18 5 -16
6 8 1 21 -7 38 -24 54 l-24 23 -11 -27z"/>
<path d="M15310 11353 c0 -17 19 -35 29 -29 18 12 12 36 -9 36 -11 0 -20 -3
-20 -7z"/>
<path d="M16635 11269 c-5 -5 -19 -16 -29 -23 -19 -13 -19 -13 0 -39 10 -14
25 -29 33 -32 24 -10 51 25 51 67 0 33 -3 38 -22 38 -13 -1 -27 -5 -33 -11z"/>
<path d="M15940 10705 c0 -11 -7 -13 -28 -9 -16 3 -49 -3 -80 -15 -29 -12 -66
-21 -82 -21 -17 0 -30 -4 -30 -10 0 -6 27 -10 60 -10 37 0 60 -4 60 -11 0 -7
7 -8 18 -4 9 4 37 9 61 11 25 3 46 6 47 7 0 1 4 19 7 40 5 32 3 37 -14 37 -10
0 -19 -7 -19 -15z"/>
<path d="M14507 10620 c-3 -11 -2 -30 1 -42 6 -23 6 -23 13 2 10 36 10 60 0
60 -5 0 -11 -9 -14 -20z"/>
<path d="M15778 10553 c12 -2 32 -2 45 0 12 2 2 4 -23 4 -25 0 -35 -2 -22 -4z"/>
<path d="M15760 10490 c0 -17 -7 -20 -40 -20 -30 0 -40 -4 -40 -16 0 -10 -6
-14 -15 -10 -16 6 -35 -21 -35 -52 0 -11 -7 -25 -15 -32 -8 -7 -15 -24 -15
-37 0 -23 3 -25 28 -18 15 4 41 6 57 6 17 -1 49 1 73 4 38 6 42 9 42 35 0 16
7 35 15 44 8 8 15 31 15 50 0 20 4 36 10 36 5 0 7 7 4 15 -4 10 -20 15 -45 15
-32 0 -39 -3 -39 -20z"/>
<path d="M15841 10384 c0 -11 3 -14 6 -6 3 7 2 16 -1 19 -3 4 -6 -2 -5 -13z"/>
<path d="M14240 10130 c0 -13 11 -13 30 0 12 8 11 10 -7 10 -13 0 -23 -4 -23
-10z"/>
<path d="M14352 10078 c-14 -14 -16 -28 -3 -28 5 0 11 9 14 20 6 23 5 24 -11
8z"/>
<path d="M15975 9770 c-11 -5 -16 -9 -11 -9 5 -1 3 -9 -6 -18 -19 -24 -38 -70
-38 -93 0 -16 7 -20 33 -20 66 0 77 8 77 56 0 34 -3 42 -15 38 -10 -4 -15 0
-15 15 0 12 5 21 10 21 6 0 10 5 10 10 0 12 -17 12 -45 0z"/>
<path d="M12568 9703 c6 -2 18 -2 25 0 6 3 1 5 -13 5 -14 0 -19 -2 -12 -5z"/>
<path d="M15876 9641 c-4 -5 -2 -12 3 -15 5 -4 12 -2 15 3 4 5 2 12 -3 15 -5
4 -12 2 -15 -3z"/>
<path d="M12650 9540 c-37 -37 -26 -49 53 -52 35 -1 61 3 72 12 15 13 12 16
-31 37 -58 28 -69 28 -94 3z"/>
<path d="M12973 9523 c-7 -3 -13 -8 -13 -12 0 -11 50 -32 61 -25 5 3 21 -4 35
-15 22 -17 41 -21 109 -21 61 0 86 4 95 15 7 8 16 13 20 10 5 -3 11 -1 15 5 4
6 -5 10 -20 10 -14 0 -24 4 -21 8 12 19 -38 29 -149 29 -66 1 -126 -1 -132 -4z"/>
<path d="M12504 9467 c-44 -25 -56 -44 -49 -80 6 -32 10 -36 34 -31 14 2 55 8
90 14 60 9 108 30 69 30 -9 0 -23 8 -30 18 -23 30 -93 60 -114 49z"/>
<path d="M12842 9350 c-29 -12 -35 -30 -23 -63 7 -19 18 -27 34 -27 12 0 40
-9 62 -20 56 -28 73 -26 83 13 8 27 6 33 -12 42 -12 5 -28 16 -36 24 -12 12
-74 42 -82 40 -2 0 -13 -4 -26 -9z"/>
</g>
</svg>
